<svg width="556" height="377" viewBox="0 0 556 377" fill="none" xmlns="http://www.w3.org/2000/svg">
<g clip-path="url(#clip0)">
<path opacity="0.1" d="M300.823 55.1901C266.655 55.136 233.734 44.511 202.236 32.687C170.739 20.8629 139.492 7.67746 105.942 2.02096C84.338 -1.61571 59.8373 -1.36999 43.0108 11.5451C26.8227 23.9737 22.1877 44.5995 19.9684 63.6773C18.3039 78.0176 17.5576 93.0803 23.9798 106.221C28.443 115.348 36.0534 122.876 41.4396 131.58C60.181 161.853 49.0599 200.382 31.0109 231.254C22.5412 245.707 12.6181 259.581 6.23026 274.894C-0.157607 290.208 -2.74516 307.585 3.85384 322.736C10.4037 337.759 25.1336 348.714 40.8897 356.189C72.9469 371.423 110.199 374.775 146.454 376.136C226.722 379.154 307.113 373.777 387.293 368.371C416.964 366.376 446.767 364.361 475.815 358.4C491.944 355.093 508.545 350.163 519.955 339.273C534.44 325.454 537.346 302.823 526.736 286.522C508.932 259.153 462.209 253.865 449.394 224.29C442.339 208.009 448.329 189.398 457.181 173.741C476.178 140.18 508.952 110.163 509.399 72.5577C509.703 46.7275 492.543 21.4821 466.992 10.1789C440.203 -1.68451 403.751 1.23466 385.079 23.094C365.851 45.602 330.995 55.2392 300.823 55.1901Z" fill="#6C63FF"/>
<path d="M470.787 307.643C470.787 307.643 464.753 303.657 458.773 306.493C458.773 306.493 460.614 310.046 468.185 309.707L470.787 307.643Z" fill="#6C63FF"/>
<path d="M471.529 307.859C471.529 307.859 473.365 314.857 468.765 319.619C468.765 319.619 465.995 316.73 468.765 309.663L471.529 307.859Z" fill="#6C63FF"/>
<path d="M479.056 301.141C479.056 301.141 478.609 295.185 465.185 297.16C465.185 297.16 465.121 301.003 469.835 302.822C474.549 304.64 476.704 303.107 479.056 301.141Z" fill="#6C63FF"/>
<path d="M479.881 301.097C479.881 301.097 485.561 302.925 480.499 315.53C480.499 315.53 476.753 314.69 476.08 309.677C475.408 304.665 477.421 302.925 479.881 301.097Z" fill="#6C63FF"/>
<path d="M487.486 292.654C487.486 292.654 488.252 282.859 474.529 283.867C474.529 283.867 473.547 292.713 485.061 295.008L487.486 292.654Z" fill="#6C63FF"/>
<path d="M496.555 281.596C496.555 281.596 494.67 270.5 480.956 273.807C480.956 273.807 480.902 283.405 494.311 284.245L496.555 281.596Z" fill="#6C63FF"/>
<path d="M503.178 270.165C503.178 270.165 500.031 259.354 486.44 262.592C486.44 262.592 489.671 272.313 502.275 272.166L503.178 270.165Z" fill="#6C63FF"/>
<path d="M509.473 259.005C509.473 259.005 506.395 247.785 493.27 251.142C493.27 251.142 497.65 261.801 508.609 260.907L509.473 259.005Z" fill="#6C63FF"/>
<path d="M513.534 248.399C513.534 248.399 511.167 234.698 498.946 237.715C498.946 237.715 502.501 250.198 512.645 250.395L513.534 248.399Z" fill="#6C63FF"/>
<path d="M517.334 235.587C517.334 235.587 514.496 221.753 502.113 225.759C502.113 225.759 506.969 238.826 516.46 237.475L517.334 235.587Z" fill="#6C63FF"/>
<path d="M519.691 223.66C519.691 223.66 515.178 209.831 505.609 210.205C505.609 210.205 510.224 224.815 518.866 226.422L519.691 223.66Z" fill="#6C63FF"/>
<path d="M521.188 212.028C521.188 212.028 516.278 195.378 508.491 196.66C508.491 196.66 511.889 209.389 520.913 214.618L521.188 212.028Z" fill="#6C63FF"/>
<path d="M522.023 198.13C522.023 198.13 517.422 184.251 509.748 183.701C509.748 183.701 512.881 197.353 521.866 201.732L522.023 198.13Z" fill="#6C63FF"/>
<path d="M522.971 185.19C522.971 185.19 517.231 171.297 512.169 170.987C512.169 170.987 514.658 184.659 522.48 187.47L522.971 185.19Z" fill="#6C63FF"/>
<path d="M523.604 173.14C523.604 173.14 520.059 158.033 515.002 156.804C515.002 156.804 515.699 169.14 523.098 174.265L523.604 173.14Z" fill="#6C63FF"/>
<path d="M525.514 157.37C525.514 157.37 521.802 145.349 517.692 143.516C517.692 143.516 518.507 157.689 524.566 160.313L525.514 157.37Z" fill="#6C63FF"/>
<path d="M527.1 147.015L527.851 125.814C527.851 125.814 520.182 141.811 526.535 150.755L527.1 147.015Z" fill="#6C63FF"/>
<path d="M533.036 125.947C533.036 125.947 538.565 110.461 539.91 109.601C539.91 109.601 529.059 119.642 530.12 132.567L533.036 125.947Z" fill="#6C63FF"/>
<path d="M487.859 292.585C487.859 292.585 497.591 291.307 497.296 305.077C497.296 305.077 488.503 306.508 485.635 295.126L487.859 292.585Z" fill="#6C63FF"/>
<path d="M497.012 281.228C497.012 281.228 508.26 281.188 507.323 295.283C507.323 295.283 497.886 296.969 494.768 283.887L497.012 281.228Z" fill="#6C63FF"/>
<path d="M503.287 271.065C503.287 271.065 513.494 266.273 520.03 278.638C520.03 278.638 510.598 282.633 502.388 273.06L503.287 271.065Z" fill="#6C63FF"/>
<path d="M509.704 259.108C509.704 259.108 520.152 254.007 526.29 266.091C526.29 266.091 515.404 269.846 508.84 261.02L509.704 259.108Z" fill="#6C63FF"/>
<path d="M513.401 248.694C513.401 248.694 523.462 239.077 531.489 248.807C531.489 248.807 521.213 256.72 512.935 250.837L513.401 248.694Z" fill="#6C63FF"/>
<path d="M516.764 235.258C516.764 235.258 526.889 225.429 534.853 235.71C534.853 235.71 523.491 243.785 516.406 237.322L516.764 235.258Z" fill="#6C63FF"/>
<path d="M518.66 223.267C518.66 223.267 526.457 210.981 535.633 213.728C535.633 213.728 527.547 226.737 518.748 226.157L518.66 223.267Z" fill="#6C63FF"/>
<path d="M520.957 211.949C520.957 211.949 528.813 196.474 536.242 199.172C536.242 199.172 530.581 211.065 520.756 214.559L520.957 211.949Z" fill="#6C63FF"/>
<path d="M521.498 197.348C521.498 197.348 529.574 185.17 537.141 186.655C537.141 186.655 530.542 199.005 520.717 200.872L521.498 197.348Z" fill="#6C63FF"/>
<path d="M522.116 184.915C522.116 184.915 528.372 171.253 533.463 171.13C533.463 171.13 530.458 184.704 522.534 187.215L522.116 184.915Z" fill="#6C63FF"/>
<path d="M523.354 172.84C523.354 172.84 530.311 159.001 535.54 158.977C535.54 158.977 531.98 170.806 523.589 174.059L523.354 172.84Z" fill="#6C63FF"/>
<path d="M524.404 158.22C524.404 158.22 529.609 146.769 533.915 145.472C533.915 145.472 531.313 159.429 524.974 161.257L524.404 158.22Z" fill="#6C63FF"/>
<path d="M527.723 146.612L539.35 128.881C539.35 128.881 536.375 146.371 526.025 150.013L527.723 146.612Z" fill="#6C63FF"/>
<path d="M535.707 127.372C535.707 127.372 549.224 118.035 549.71 116.521C549.71 116.521 542.836 129.603 530.07 131.913L535.707 127.372Z" fill="#6C63FF"/>
<path d="M536.512 123.17C536.512 123.17 552.033 108.235 555.995 108.255C555.995 108.255 543.195 108.84 536.139 122.374L536.512 123.17Z" fill="#6C63FF"/>
<path d="M524.552 160.436L525.116 160.51C528.033 137.658 532.285 124.143 537.092 122.482L536.905 121.946C531.813 123.716 527.542 137.024 524.552 160.436Z" fill="#444053"/>
<path d="M520.265 215.07L521.119 215.144C521.296 213.011 521.434 210.824 521.527 208.652C522.342 189.736 523.609 172.373 525.268 159.355L524.777 158.741C523.113 171.784 521.493 189.677 520.678 208.612C520.579 210.775 520.442 212.947 520.265 215.07Z" fill="#444053"/>
<path d="M454.85 318.523C455.002 318.454 470.041 311.736 485.65 295.701C494.794 286.311 502.392 275.529 508.162 263.757C515.375 249.048 519.774 230.973 521.252 213.414L520.363 213.831C517.049 253.24 499.123 280.176 484.864 294.841C469.408 310.734 454.54 317.388 454.393 317.447L454.85 318.523Z" fill="#444053"/>
<path d="M514.913 24.0217H43.1243C42.0096 24.0217 40.9406 24.4649 40.1524 25.2538C39.3642 26.0427 38.9214 27.1127 38.9214 28.2284V40.485H519.116V28.2284C519.116 27.1127 518.674 26.0427 517.885 25.2538C517.097 24.4649 516.028 24.0217 514.913 24.0217Z" fill="#3F3D56"/>
<path d="M38.9214 40.485V316.302C38.9214 318.552 39.8142 320.709 41.4035 322.3C42.9928 323.891 45.1484 324.784 47.396 324.784H510.642C512.889 324.784 515.045 323.891 516.634 322.3C518.224 320.709 519.116 318.552 519.116 316.302V40.485H38.9214Z" fill="white"/>
<path opacity="0.8" d="M46.5317 34.0913C47.6164 34.0913 48.4957 33.2112 48.4957 32.1256C48.4957 31.0399 47.6164 30.1598 46.5317 30.1598C45.4471 30.1598 44.5677 31.0399 44.5677 32.1256C44.5677 33.2112 45.4471 34.0913 46.5317 34.0913Z" fill="#FA5959"/>
<path opacity="0.8" d="M51.9327 34.0913C53.0174 34.0913 53.8967 33.2112 53.8967 32.1256C53.8967 31.0399 53.0174 30.1598 51.9327 30.1598C50.8481 30.1598 49.9688 31.0399 49.9688 32.1256C49.9688 33.2112 50.8481 34.0913 51.9327 34.0913Z" fill="#FED253"/>
<path opacity="0.8" d="M57.3337 34.0913C58.4184 34.0913 59.2977 33.2112 59.2977 32.1256C59.2977 31.0399 58.4184 30.1598 57.3337 30.1598C56.2491 30.1598 55.3698 31.0399 55.3698 32.1256C55.3698 33.2112 56.2491 34.0913 57.3337 34.0913Z" fill="#8CCF4D"/>
<g opacity="0.3">
<path opacity="0.3" d="M501.195 57.1891H57.3337V307.825H501.195V57.1891Z" stroke="#3F3D56" stroke-miterlimit="10"/>
<path opacity="0.3" d="M443.257 57.1891H115.271V307.825H443.257V57.1891Z" stroke="#3F3D56" stroke-miterlimit="10"/>
<path opacity="0.3" d="M385.32 57.1891H173.209V307.825H385.32V57.1891Z" stroke="#3F3D56" stroke-miterlimit="10"/>
<path opacity="0.3" d="M327.382 57.1891H231.147V307.825H327.382V57.1891Z" stroke="#3F3D56" stroke-miterlimit="10"/>
<path opacity="0.3" d="M279.264 57.1891V307.825" stroke="#3F3D56" stroke-miterlimit="10"/>
<path opacity="0.3" d="M501.195 93.5558H57.3337V271.458H501.195V93.5558Z" stroke="#3F3D56" stroke-miterlimit="10"/>
<path opacity="0.3" d="M501.195 129.431H57.3337V235.583H501.195V129.431Z" stroke="#3F3D56" stroke-miterlimit="10"/>
<path opacity="0.3" d="M501.195 165.306H57.3337V199.707H501.195V165.306Z" stroke="#3F3D56" stroke-miterlimit="10"/>
</g>
<path opacity="0.1" d="M161.671 71.1952H126.81V83.9727H161.671V71.1952Z" fill="#3F3D56"/>
<path opacity="0.1" d="M98.3319 106.088H72.3091V118.865H98.3319V106.088Z" fill="#3F3D56"/>
<path opacity="0.1" d="M218.135 71.1952H183.274V83.9727H218.135V71.1952Z" fill="#3F3D56"/>
<path opacity="0.1" d="M271.163 71.1952H236.302V83.9727H271.163V71.1952Z" fill="#3F3D56"/>
<path opacity="0.1" d="M320.263 71.1952H285.402V83.9727H320.263V71.1952Z" fill="#3F3D56"/>
<path opacity="0.1" d="M375.254 71.1952H340.393V83.9727H375.254V71.1952Z" fill="#3F3D56"/>
<path opacity="0.1" d="M431.228 71.1952H396.367V83.9727H431.228V71.1952Z" fill="#3F3D56"/>
<path opacity="0.1" d="M490.638 71.1952H455.778V83.9727H490.638V71.1952Z" fill="#3F3D56"/>
<path d="M218.454 140.464H195.805V162.412H218.454V140.464Z" fill="url(#paint0_linear)"/>
<path d="M218.067 140.842H196.198V162.033H218.067V140.842Z" fill="#7CFCFF"/>
<path d="M265.119 135.707H242.469V157.655H265.119V135.707Z" fill="url(#paint1_linear)"/>
<path d="M264.731 136.085H242.862V157.276H264.731V136.085Z" fill="#FFFFA5"/>
<path d="M354.971 210.406H332.322V232.354H354.971V210.406Z" fill="url(#paint2_linear)"/>
<path d="M354.583 210.784H332.714V231.975H354.583V210.784Z" fill="#FFFFA5"/>
<path d="M155.499 101.35H132.849V123.298H155.499V101.35Z" fill="url(#paint3_linear)"/>
<path d="M155.106 101.729H133.237V122.919H155.106V101.729Z" fill="#FFFFA5"/>
<path d="M200.503 132.802H177.854V154.75H200.503V132.802Z" fill="url(#paint4_linear)"/>
<path d="M200.111 133.181H178.242V154.372H200.111V133.181Z" fill="#FF69B4"/>
<path d="M381.465 210.249H358.816V232.197H381.465V210.249Z" fill="url(#paint5_linear)"/>
<path d="M381.077 210.627H359.208V231.818H381.077V210.627Z" fill="#7CFCFF"/>
<path d="M421.236 101.64H398.586V123.588H421.236V101.64Z" fill="url(#paint6_linear)"/>
<path d="M420.848 102.018H398.979V123.209H420.848V102.018Z" fill="#7CFCFF"/>
<path d="M418.781 171.425H396.131V193.373H418.781V171.425Z" fill="url(#paint7_linear)"/>
<path d="M418.393 171.803H396.524V192.994H418.393V171.803Z" fill="#7CFCFF"/>
<path d="M435.966 176.339H413.316V198.287H435.966V176.339Z" fill="url(#paint8_linear)"/>
<path d="M435.578 176.718H413.709V197.909H435.578V176.718Z" fill="#7CFCFF"/>
<path d="M363.514 202.587H340.865V224.535H363.514V202.587Z" fill="url(#paint9_linear)"/>
<path d="M363.122 202.966H341.253V224.157H363.122V202.966Z" fill="#FF69B4"/>
<path d="M365.97 136.242H343.32V158.19H365.97V136.242Z" fill="url(#paint10_linear)"/>
<path d="M365.577 136.621H343.708V157.812H365.577V136.621Z" fill="#FF69B4"/>
<path opacity="0.1" d="M98.3319 140.489H72.3091V153.266H98.3319V140.489Z" fill="#3F3D56"/>
<path opacity="0.1" d="M98.3319 176.364H72.3091V189.141H98.3319V176.364Z" fill="#3F3D56"/>
<path opacity="0.1" d="M98.3319 212.239H72.3091V225.017H98.3319V212.239Z" fill="#3F3D56"/>
<path opacity="0.1" d="M98.3319 248.114H72.3091V260.892H98.3319V248.114Z" fill="#3F3D56"/>
<path opacity="0.1" d="M98.3319 283.99H72.3091V296.767H98.3319V283.99Z" fill="#3F3D56"/>
<path d="M151.36 172.535C152.086 172.074 151.797 170.835 151.05 170.408C150.304 169.98 149.376 170.123 148.536 170.29C148.572 170.075 148.539 169.855 148.442 169.661C148.345 169.467 148.189 169.308 147.996 169.208V169.022C148.487 168.53 148.301 167.547 147.702 167.115C147.103 166.682 146.17 166.663 145.365 166.702C145.422 166.214 145.363 165.718 145.192 165.257C145.021 164.796 144.744 164.382 144.383 164.048C144.242 163.896 144.049 163.803 143.842 163.788C143.351 163.788 143.214 164.417 143.18 164.884C143.086 166.11 142.884 167.325 142.576 168.515L127.315 194.07C125.617 196.528 130.895 189.156 129.196 191.638C128.336 192.989 127.328 194.24 126.191 195.368C125.171 196.28 124.029 197.045 122.798 197.643C121.977 197.667 121.167 197.437 120.481 196.985C119.619 196.38 118.865 195.634 118.252 194.778C116.921 193.086 115.719 191.297 114.653 189.426C114.283 188.834 114.005 188.19 113.828 187.515C113.602 186.453 113.828 185.303 113.41 184.306C113.233 183.934 113.012 183.584 112.753 183.264L111.697 181.863V181.799C111.579 179.725 109.895 178.123 108.324 176.757C106.988 175.587 105.54 174.369 103.777 174.142C102.834 174.02 101.867 174.201 100.924 174.084C100.154 173.985 99.4219 173.695 98.656 173.568C97.9188 173.467 97.1724 173.452 96.4318 173.523L96.1175 173.233C97.7471 172.544 99.1314 171.38 100.09 169.892C100.816 168.717 101.214 167.361 101.887 166.152C102.707 164.677 103.924 163.459 104.833 162.043C107.027 158.687 107.43 154.367 106.541 150.455C105.653 146.543 103.571 142.99 101.14 139.82C96.4269 133.716 88.5218 131.466 81.0783 132.645C80.5873 132.724 80.0963 132.817 79.6053 132.925C78.353 133.189 77.1307 133.579 75.9572 134.09C74.3693 134.741 72.9915 135.817 71.9752 137.201C71.7013 137.605 71.4693 138.037 71.2829 138.488C71.1458 138.834 71.0342 139.188 70.949 139.55C70.7207 140.642 70.6595 141.762 70.7674 142.872C70.7968 143.25 70.8361 143.629 70.8803 144.007L70.9539 144.577C71.003 144.956 71.0571 145.334 71.1111 145.713C71.1896 146.283 71.2633 146.853 71.3173 147.413C71.3606 147.81 71.3819 148.208 71.3811 148.607C71.3811 148.71 71.3811 148.809 71.3811 148.907C71.3638 149.204 71.3194 149.498 71.2485 149.787C71.2098 149.945 71.1606 150.101 71.1012 150.254C70.9244 150.705 70.6918 151.133 70.4089 151.526C70.0265 152.061 69.6116 152.571 69.1667 153.055L68.7395 153.546C68.5972 153.708 68.4597 153.875 68.3173 154.038C67.7559 154.693 67.2423 155.388 66.7805 156.116C66.5551 156.483 66.3534 156.864 66.1765 157.257C66.0422 157.554 65.9258 157.859 65.8279 158.171C65.703 158.588 65.6143 159.016 65.5628 159.448C65.5628 159.556 65.5628 159.665 65.5333 159.773C65.5333 159.984 65.5333 160.2 65.5333 160.417C65.5441 160.631 65.567 160.844 65.6021 161.055C65.6366 161.265 65.6859 161.472 65.7494 161.675C65.8109 161.88 65.888 162.081 65.9801 162.274C65.9801 162.328 66.0292 162.382 66.0587 162.436L66.1373 162.599C66.1913 162.707 66.2453 162.81 66.2944 162.918C66.3685 163.074 66.4229 163.24 66.4564 163.409C66.4564 163.463 66.4564 163.522 66.4564 163.581C66.4564 163.64 66.4564 163.709 66.4564 163.768C66.3783 164.262 66.1192 164.709 65.7297 165.021C65.6315 165.115 65.5333 165.198 65.4302 165.287L65.2731 165.414L64.954 165.665L64.6495 165.911C64.3821 166.135 64.134 166.382 63.9081 166.648C61.1434 166.5 58.3723 166.772 55.6888 167.454C54.7355 167.765 53.7445 167.945 52.7429 167.99C52.5025 168.012 52.2604 167.975 52.0378 167.881C51.8152 167.788 51.6189 167.641 51.4663 167.454C51.2962 167.085 51.2497 166.672 51.3337 166.275C51.4661 164.629 51.1965 162.976 50.5481 161.458C50.3914 161.014 50.1204 160.619 49.7625 160.313C49.5802 160.165 49.3554 160.078 49.1207 160.066C48.886 160.053 48.6534 160.116 48.4565 160.245C49.2869 162.933 49.1673 165.826 48.1177 168.437C47.5786 169.668 46.9467 170.855 46.2273 171.99C45.1079 173.902 44.4794 176.089 43.4827 178.069C44.5972 181.848 44.3468 185.883 44.9557 189.785C45.5007 193.417 46.7674 196.896 48.0391 200.341C49.0211 202.941 50.0424 205.654 52.1242 207.482C52.7952 208.159 53.7002 208.553 54.6528 208.583C55.358 208.495 56.0317 208.239 56.6168 207.836C57.2241 207.505 57.7839 207.093 58.2813 206.612C58.4653 206.41 58.6297 206.191 58.7723 205.958C58.8333 206.288 58.9584 206.602 59.1406 206.882C60.3386 204.297 61.6545 201.771 63.0685 199.299C63.4897 199.075 63.8849 198.805 64.2469 198.493C64.2469 198.582 64.2911 198.67 64.3157 198.759C64.2518 198.995 64.1929 199.25 64.1291 199.471C64.0653 199.693 63.9916 199.928 63.9229 200.15C63.8541 200.371 63.8198 200.479 63.7657 200.641C63.7117 200.803 63.6332 201.034 63.5595 201.231C63.4859 201.427 63.4024 201.658 63.3189 201.87C63.2355 202.081 63.206 202.174 63.1422 202.322C62.99 202.695 62.8329 203.059 62.6512 203.423C62.788 203.489 62.929 203.547 63.0734 203.595L63.1667 203.624C63.294 203.664 63.4235 203.697 63.5546 203.722H63.697C63.793 203.737 63.8897 203.747 63.9867 203.752H64.0947H64.4139C64.7652 203.737 65.1133 203.677 65.4499 203.575L65.6414 204.361C66.1311 206.128 66.4469 207.939 66.5841 209.767C66.6774 211.831 66.3189 213.93 66.7166 215.959C66.9179 217.016 67.3255 218.028 67.4728 219.09C67.5677 220.09 67.5496 221.097 67.4188 222.092C67.1896 224.504 66.9605 226.917 66.7314 229.331C66.7103 230.218 66.4993 231.089 66.1127 231.887C65.7739 232.477 65.224 233.15 65.5677 233.735C66.1336 233.584 66.7095 233.474 67.2911 233.405C67.08 234.172 66.8885 234.944 66.7068 235.72C66.5296 236.297 66.4827 236.907 66.5693 237.504C66.6921 238.064 67.0603 238.571 67.0996 239.141C67.188 240.025 66.5743 240.807 66.2355 241.627C65.3713 243.721 66.2895 246.08 67.2175 248.154L69.9278 254.307L72.152 259.354C72.8099 260.828 73.4728 262.351 74.116 263.865C77.0146 270.757 79.3816 277.861 81.1961 285.115C81.2567 285.444 81.3819 285.758 81.5644 286.039C81.9375 286.53 82.62 286.688 83.1749 286.992C84.8393 287.911 85.0308 290.654 83.5087 291.794C83.8181 295.489 81.0538 299.062 79.6299 302.483C76.35 310.346 76.9441 319.221 75.8197 327.674L77.0914 326.932C77.2422 327 77.3814 327.091 77.5038 327.202C77.4744 327.359 77.44 327.523 77.4007 327.694C77.2287 328.412 76.9542 329.102 76.5857 329.743C75.8443 331.016 74.7101 332.151 74.5382 333.615C74.4351 334.5 74.7052 335.385 74.7002 336.274C74.7002 336.358 74.7002 336.436 74.7002 336.52C74.5873 336.412 74.4155 336.422 74.1602 336.623C73.7605 337.043 73.4836 337.565 73.3598 338.132C73.1389 338.766 72.9621 339.41 72.7854 340.053L72.1274 342.324C71.7914 343.692 71.3465 345.032 70.7968 346.329C70.3267 347.198 69.9325 348.105 69.6184 349.042C69.4434 349.805 69.3756 350.589 69.4171 351.371C69.4042 352.121 69.512 352.867 69.7363 353.583C70.031 354.287 70.4692 354.922 71.0229 355.448C71.5766 355.973 72.2338 356.378 72.9523 356.635C74.3905 357.141 75.8969 357.426 77.4204 357.48C77.8109 357.53 78.2069 357.518 78.5939 357.445C79.0082 357.326 79.3941 357.124 79.7281 356.851C81.8001 355.327 82.8704 352.526 83.057 349.971C83.0046 349.443 82.911 348.921 82.7771 348.408C82.9048 345.612 82.4973 342.801 82.7084 340.014C82.7526 340.333 82.7968 340.648 82.8459 340.963L83.3369 344.093C83.3081 343.982 83.2505 343.88 83.1699 343.798C82.8065 344.957 82.7423 346.19 82.9834 347.381C83.2282 348.566 83.5731 349.728 84.0145 350.855L84.6822 352.723C84.8431 353.286 85.1134 353.812 85.4776 354.271C86.0619 354.915 86.9506 355.155 87.805 355.362C89.6413 355.899 91.532 356.228 93.4416 356.345C93.6969 356.375 93.9554 356.327 94.183 356.207C94.2999 356.121 94.4113 356.027 94.5169 355.927C94.6866 355.805 94.8674 355.7 95.057 355.612C95.8774 355.18 96.4974 354.445 96.7853 353.563C96.9234 353.124 96.9664 352.661 96.9114 352.204C96.8563 351.747 96.7046 351.308 96.4661 350.914C96.2429 350.582 95.988 350.273 95.7051 349.99L92.3467 346.427C91.8332 345.817 91.2857 345.236 90.7067 344.688C90.6376 344.617 90.5524 344.564 90.4584 344.533C90.3643 344.502 90.2643 344.494 90.1667 344.511C89.2534 342.23 89.3712 339.567 89.5284 337.065C89.5775 336.318 89.985 334.77 90.147 333.497C90.7948 333.279 91.3983 332.946 91.9293 332.515C92.4411 332.14 92.8046 331.597 92.9555 330.981C94.6495 322.322 97.3745 313.928 99.9473 305.49C100.203 304.66 100.438 303.824 100.699 302.994C100.807 302.64 100.905 302.281 101.008 301.922C101.111 301.564 101.18 301.342 101.263 301.053C101.401 300.561 101.538 300.07 101.671 299.578C101.71 299.445 101.744 299.313 101.784 299.18C101.781 299.154 101.781 299.128 101.784 299.101C101.946 298.497 102.103 297.893 102.275 297.288C102.334 297.052 102.397 296.826 102.456 296.59C102.648 295.824 102.839 295.047 103.021 294.276C103.051 294.169 103.074 294.061 103.09 293.951C103.156 293.679 103.137 293.392 103.036 293.13C102.987 293.029 102.922 292.936 102.844 292.855C102.79 292.791 102.731 292.727 102.672 292.669C102.613 292.61 102.545 292.531 102.486 292.457C102.331 292.267 102.214 292.048 102.142 291.813C102.142 291.577 102.142 291.322 102.142 291.106C102.142 290.889 102.113 290.614 102.098 290.359C102.15 290.027 102.224 289.698 102.319 289.376C102.378 289.184 102.442 288.993 102.5 288.801C102.559 288.609 102.648 288.309 102.726 288.088C103.02 287.753 103.179 287.32 103.173 286.874C103.478 286.114 103.813 285.369 104.18 284.638C104.632 283.898 104.937 283.077 105.078 282.22C105.076 281.447 104.98 280.676 104.793 279.925C104.302 276.731 105.775 273.62 106.861 270.588C107.666 268.351 108.277 266.049 108.687 263.708C109.006 261.914 109.227 260.032 110.185 258.479C110.501 258.043 110.77 257.575 110.99 257.083C111.138 256.569 111.211 256.036 111.206 255.501C111.327 253.331 111.851 251.202 112.753 249.225C112.952 248.842 113.088 248.428 113.155 248.001C113.158 247.974 113.158 247.946 113.155 247.918V247.8L113.406 247.761C113.833 245.053 114.265 242.035 113.97 239.308C113.587 236.148 112.05 233.243 109.654 231.15H109.703C110.548 230.722 110.926 229.675 110.941 228.752C110.943 228.051 110.788 227.36 110.487 226.728C110.186 226.096 109.747 225.54 109.203 225.1C108.959 224.949 108.757 224.739 108.613 224.491C108.532 224.235 108.507 223.965 108.54 223.7C108.544 222.897 108.309 222.112 107.866 221.443C107.423 220.774 106.791 220.253 106.05 219.945C105.897 219.902 105.756 219.821 105.643 219.709C105.517 219.492 105.478 219.236 105.535 218.991C105.58 218.194 105.407 217.398 105.034 216.692C104.661 215.985 104.103 215.394 103.419 214.981C103.615 213.93 103.811 212.829 103.512 211.797C103.212 210.765 102.245 209.831 101.185 209.978C102.049 207.62 100.821 204.995 101.145 202.504C101.288 201.432 101.715 200.405 101.769 199.329C101.818 198.346 101.577 197.294 102.054 196.439C102.53 195.584 103.654 194.916 103.365 193.982C103.242 193.584 102.874 193.309 102.702 192.92C102.53 192.532 103.217 191.938 103.571 192.154C103.738 192.026 103.905 191.893 104.062 191.756C104.113 192.255 104.212 192.749 104.356 193.23C104.597 194.036 104.965 194.793 105.216 195.594C105.599 196.818 105.707 198.145 106.325 199.265C107.307 201.059 109.384 201.948 110.789 203.437C111.613 204.307 112.208 205.403 113.057 206.229C113.702 206.832 114.41 207.364 115.168 207.816L119.705 210.765C120.176 211.107 120.7 211.368 121.257 211.536C121.61 211.604 121.973 211.598 122.324 211.521C122.675 211.443 123.006 211.294 123.298 211.084C123.59 210.874 123.836 210.607 124.021 210.298C124.206 209.99 124.326 209.647 124.374 209.29C123.957 209.143 123.577 208.906 123.26 208.598C123.324 208.598 123.388 208.597 123.451 208.568C124.529 208.286 125.526 207.756 126.363 207.02C129.594 204.445 131.916 200.931 134.185 197.476C136.561 193.854 147.996 184.271 147.996 184.271V180.389C149.451 179.544 150.742 178.444 151.806 177.14C152.38 176.445 152.716 175.584 152.764 174.683C152.786 174.223 152.662 173.767 152.41 173.381C152.157 172.996 151.79 172.7 151.36 172.535ZM56.2535 181.848C56.0342 183.26 55.7641 184.663 55.4433 186.055C55.09 187.666 54.6374 189.253 54.0882 190.807L53.9114 191.299C53.7494 190.994 53.5874 190.694 53.4204 190.385C53.0522 189.613 52.7527 188.812 52.4384 188.011L50.5432 182.9C50.2977 182.237 50.0522 181.47 50.4205 180.861C50.6904 180.487 51.067 180.204 51.5006 180.05C52.8332 179.438 54.2252 178.965 55.6545 178.639C56.1064 178.548 56.5524 178.43 56.99 178.285C56.6376 179.448 56.3911 180.641 56.2535 181.848ZM58.35 175.46C58.2868 175.346 58.2537 175.218 58.2537 175.089C58.2537 174.959 58.2868 174.831 58.35 174.717C58.4919 174.574 58.6582 174.458 58.841 174.373L58.9834 174.275C58.787 174.683 58.5661 175.076 58.35 175.474V175.46ZM62.278 169.901C61.7206 170.364 61.2137 170.885 60.7658 171.454C60.285 172.09 59.8518 172.76 59.4695 173.459C59.5274 173.188 59.5075 172.905 59.4119 172.644C59.3163 172.383 59.1491 172.155 58.9294 171.985C58.7555 171.89 58.5911 171.778 58.4384 171.651C58.2744 171.432 58.2039 171.157 58.2426 170.886C58.2812 170.615 58.4259 170.37 58.6446 170.206C59.0965 169.896 59.6246 169.716 60.1716 169.685L62.4351 169.351C62.3664 169.543 62.3222 169.729 62.2731 169.916L62.278 169.901ZM83.4695 334.362C83.5094 333.683 83.4648 333.001 83.3369 332.333C83.6167 332.333 83.8966 332.333 84.1716 332.333C83.9408 332.986 83.7051 333.679 83.4695 334.362Z" fill="url(#paint11_linear)"/>
<path d="M81.1619 134.119C77.2339 134.753 72.864 136.267 71.3419 139.953C70.2077 142.739 71.0866 145.875 71.3763 148.868C71.4862 149.658 71.4579 150.461 71.2928 151.241C70.9688 152.504 70.0752 153.527 69.211 154.504C68.0105 155.746 67.0026 157.161 66.2208 158.701C65.5138 160.274 65.2879 162.142 66.0195 163.714C66.2684 164.118 66.4352 164.567 66.5105 165.036C66.5596 166.058 65.4892 166.707 64.7036 167.361C61.7577 169.818 61.8804 174.241 61.8559 178.089C61.8106 185.935 60.0703 193.679 56.7544 200.789C57.9971 201.418 59.4007 201.659 60.782 201.478C62.1633 201.298 63.4581 200.704 64.4974 199.776C64.0891 201.523 63.5 203.223 62.7397 204.848C65.2339 206.057 68.2437 204.071 69.4958 201.594C70.7478 199.118 70.8951 196.238 71.7838 193.609C72.6725 190.979 74.2388 188.694 74.9311 186.045C75.1521 185.17 75.2895 184.237 75.8247 183.509C76.2757 182.983 76.8057 182.531 77.3959 182.168C79.9857 180.297 81.9271 177.663 82.9491 174.634C86.0031 175.307 89.1209 175.985 92.2338 175.7C95.3468 175.415 98.5284 174.005 100.173 171.341C100.9 170.167 101.293 168.815 101.965 167.606C102.79 166.132 104.003 164.913 104.911 163.503C107.101 160.146 107.504 155.836 106.615 151.924C105.726 148.013 103.669 144.474 101.214 141.304C96.5104 135.191 88.6054 132.925 81.1619 134.119Z" fill="#303D5C"/>
<path d="M56.3713 183.274C56.1504 184.679 55.8803 186.085 55.5661 187.475C55.2098 189.084 54.7573 190.669 54.211 192.223C53.8897 192.903 53.7429 193.653 53.7838 194.405C53.8807 194.865 54.0586 195.304 54.3092 195.702C56.1013 198.892 58.5268 201.973 58.7281 205.629C58.7772 206.538 58.7281 207.526 59.2191 208.278C60.6037 205.293 62.1324 202.384 63.805 199.55C65.553 196.601 67.4973 193.584 67.9981 190.173C68.1979 188.573 68.1764 186.952 67.9343 185.357C67.7035 183.563 67.3009 181.725 66.2109 180.29C65.0227 178.738 61.792 176.393 59.6659 176.88C57.1962 177.445 56.6856 181.273 56.3713 183.274Z" fill="#6C63FF"/>
<path d="M119.656 200.464C122.003 199.506 124.399 198.498 126.26 196.768C127.396 195.64 128.404 194.389 129.265 193.038L134.788 185.062C136.094 183.165 137.445 181.175 137.734 178.89C140.969 175.471 142.918 171.035 143.248 166.338C143.288 165.872 143.445 165.257 143.911 165.242C144.118 165.258 144.311 165.351 144.451 165.503C144.812 165.836 145.089 166.249 145.26 166.709C145.431 167.17 145.49 167.664 145.433 168.152C146.238 168.113 147.112 168.093 147.77 168.565C148.428 169.036 148.605 170.206 147.898 170.594C148.135 170.666 148.337 170.822 148.466 171.033C148.596 171.244 148.643 171.496 148.6 171.739C149.445 171.572 150.373 171.435 151.119 171.857C151.865 172.28 152.15 173.518 151.428 173.98C151.849 174.143 152.209 174.432 152.46 174.808C152.71 175.183 152.839 175.627 152.828 176.079C152.783 176.98 152.447 177.842 151.87 178.536C149.749 181.386 146.008 182.536 143.548 185.102C142.74 185.999 142.015 186.967 141.383 187.996L134.258 198.847C131.995 202.287 129.672 205.811 126.441 208.376C125.605 209.112 124.608 209.642 123.53 209.924C122.99 210.061 122.424 210.054 121.888 209.905C121.352 209.756 120.863 209.469 120.471 209.074C119.759 208.263 119.651 207.108 119.582 206.022C119.464 204.194 119.779 202.307 119.656 200.464Z" fill="#EE8E9E"/>
<path d="M95.7984 351.17C96.0825 351.451 96.3375 351.761 96.5595 352.094C96.7978 352.486 96.9495 352.925 97.0046 353.381C97.0596 353.837 97.0167 354.3 96.8786 354.738C96.594 355.619 95.9752 356.353 95.1552 356.782C94.9635 356.868 94.7809 356.974 94.6102 357.097C94.5058 357.199 94.3942 357.295 94.2764 357.382C94.0471 357.496 93.7901 357.544 93.5349 357.519C91.6275 357.398 89.739 357.069 87.9032 356.536C87.0587 356.325 86.1651 356.084 85.5759 355.445C85.2117 354.987 84.9414 354.461 84.7805 353.897L84.1127 352.035C83.6743 350.909 83.331 349.748 83.0865 348.565C82.8429 347.376 82.9071 346.145 83.2731 344.987C83.4387 345.195 83.5256 345.454 83.5186 345.72C83.7151 346.974 84.2065 348.163 84.9523 349.189C85.1082 349.446 85.2963 349.683 85.5121 349.892C86.0002 350.267 86.577 350.509 87.1864 350.595C88.3591 350.85 89.5518 351.003 90.751 351.052C90.917 351.074 91.086 351.054 91.242 350.993C91.4345 350.886 91.58 350.711 91.6495 350.501C91.8212 350.025 91.8212 349.504 91.6495 349.027C91.3255 348.118 90.4368 347.523 90.0145 346.658C89.6953 346.019 90.1323 345.317 90.7804 345.857C91.3623 346.404 91.9115 346.985 92.4253 347.597L95.7984 351.17Z" fill="#303D5C"/>
<path d="M89.6266 338.26C89.4351 341.262 89.3025 344.506 90.9424 347.027C91.5365 347.931 92.327 348.693 92.9997 349.543C93.3855 349.968 93.6411 350.495 93.7362 351.062C93.8295 352.163 92.7984 353.106 91.7133 353.313C90.6282 353.519 89.5185 353.175 88.4678 352.821C87.4736 352.573 86.5377 352.133 85.7133 351.524C84.2845 350.315 83.9064 348.3 83.6217 346.452L82.9539 342.157C82.4481 339.986 82.6618 337.709 83.5627 335.67L84.6626 332.446C84.7346 332.132 84.907 331.851 85.1536 331.645C85.4094 331.504 85.7037 331.449 85.9932 331.488C87.0439 331.542 89.7002 331.925 90.2108 333.041C90.6429 334.009 89.7002 337.105 89.6266 338.26Z" fill="#EE8E9E"/>
<path opacity="0.05" d="M89.6266 338.26C89.4351 341.262 89.3025 344.506 90.9424 347.027C91.5365 347.931 92.327 348.693 92.9997 349.543C93.3855 349.968 93.6411 350.495 93.7362 351.062C93.8295 352.163 92.7984 353.106 91.7133 353.313C90.6282 353.519 89.5185 353.175 88.4678 352.821C87.4736 352.573 86.5377 352.133 85.7133 351.524C84.2845 350.315 83.9064 348.3 83.6217 346.452L82.9539 342.157C82.4481 339.986 82.6618 337.709 83.5627 335.67L84.6626 332.446C84.7346 332.132 84.907 331.851 85.1536 331.645C85.4094 331.504 85.7037 331.449 85.9932 331.488C87.0439 331.542 89.7002 331.925 90.2108 333.041C90.6429 334.009 89.7002 337.105 89.6266 338.26Z" fill="black"/>
<path d="M113.229 249.255C113.231 249.282 113.231 249.31 113.229 249.338C113.166 249.763 113.03 250.174 112.826 250.552C111.925 252.524 111.399 254.648 111.275 256.813C111.28 257.348 111.207 257.881 111.059 258.395C110.838 258.885 110.569 259.351 110.253 259.786C109.296 261.344 109.075 263.226 108.756 265.01C108.344 267.342 107.733 269.634 106.929 271.861C105.834 274.898 104.361 278.004 104.862 281.198C105.049 281.949 105.145 282.72 105.147 283.493C105.007 284.348 104.702 285.168 104.248 285.906C103.882 286.634 103.555 287.379 103.266 288.142C102.947 288.958 102.663 289.794 102.412 290.639C102.118 291.666 101.921 292.885 102.599 293.71C102.809 293.912 102.995 294.138 103.154 294.384C103.281 294.76 103.281 295.167 103.154 295.543C102.764 297.182 102.348 298.82 101.906 300.458C101.563 301.736 101.199 303.004 100.826 304.271C98.0668 313.545 94.9342 322.725 93.0881 332.225C92.823 333.591 91.0701 334.569 89.7149 334.869C89.0325 335.015 88.3253 334.997 87.6511 334.817C86.9769 334.636 86.3549 334.299 85.8361 333.832C85.7428 333.748 85.6544 333.655 85.5709 333.566C84.147 332.033 83.9359 329.679 84.0439 327.556C84.5349 317.781 89.4449 308.832 91.782 299.333C92.6273 295.898 93.1371 292.389 93.3041 288.855C93.8491 277.06 94.0701 264.588 90.7362 253.25C90.0439 250.891 89.224 248.227 90.4711 246.114C91.2567 244.777 92.7149 243.986 94.1585 243.416C97.1024 242.268 100.246 241.72 103.404 241.804C106.563 241.889 109.673 242.604 112.551 243.908C112.556 244.144 112.546 244.38 112.522 244.615C112.397 245.714 112.524 246.827 112.895 247.869C113.086 248.308 113.199 248.777 113.229 249.255Z" fill="#303D5C"/>
<path d="M72.859 341.282L72.2354 343.552C71.9033 344.918 71.4599 346.255 70.9097 347.548C70.4396 348.416 70.0454 349.324 69.7313 350.261C69.5563 351.024 69.4885 351.808 69.53 352.59C69.5171 353.338 69.6249 354.083 69.8492 354.797C70.1431 355.5 70.5805 356.135 71.1335 356.659C71.6864 357.184 72.3427 357.587 73.0603 357.844C74.4982 358.35 76.0049 358.633 77.5284 358.684C77.9185 358.738 78.3149 358.728 78.7018 358.654C79.1162 358.535 79.5021 358.333 79.836 358.06C81.9081 356.541 82.9735 353.74 83.1601 351.18C83.1066 350.582 82.9897 349.993 82.8115 349.42C82.6495 349.204 81.0832 350.089 81.7558 350.831C82.7378 351.922 79.8459 351.357 78.3729 351.263C77.7259 351.208 77.084 351.102 76.4531 350.949L74.0668 350.457C73.2861 350.29 72.3876 350.02 72.1028 349.273C71.8181 348.526 72.4269 347.631 72.8983 346.904C74.1454 344.973 74.4694 342.609 74.7591 340.329C74.8131 339.881 75.3729 336.977 74.219 337.871C73.823 338.294 73.5467 338.815 73.4187 339.38C73.2076 339.994 73.0308 340.638 72.859 341.282Z" fill="#303D5C"/>
<path opacity="0.05" d="M102.574 293.715C101.897 292.89 102.083 291.671 102.393 290.644C102.501 290.26 102.623 289.882 102.751 289.504L93.3827 286.329C93.3484 287.174 93.3091 288.01 93.2698 288.845C93.1065 292.38 92.5983 295.891 91.7526 299.328C89.4106 308.822 84.4957 317.771 84.0145 327.541C83.9016 329.792 84.1422 332.308 85.8066 333.822C86.3245 334.289 86.9454 334.627 87.6187 334.808C88.292 334.989 88.9986 335.008 89.6806 334.864C91.0407 334.564 92.7886 333.581 93.0587 332.215C94.9146 322.715 98.0325 313.54 100.797 304.257C101.658 301.377 102.433 298.474 103.124 295.548C103.252 295.174 103.252 294.768 103.124 294.393C102.97 294.145 102.786 293.917 102.574 293.715Z" fill="black"/>
<path d="M76.6888 330.981C75.9474 332.259 74.8181 333.389 74.6463 334.854C74.5432 335.734 74.8132 336.618 74.8083 337.508C74.772 338.244 74.6417 338.972 74.4204 339.675C73.5072 342.974 72.4564 346.228 71.2682 349.435C71.0729 349.849 70.9867 350.305 71.0178 350.762C71.1356 351.514 71.8672 352.01 72.5645 352.31C74.7985 353.263 77.3124 353.199 79.7379 353.101C80.4433 353.13 81.1426 352.96 81.7559 352.61C82.625 352.015 82.841 350.841 82.895 349.789C83.062 346.742 82.5464 343.68 82.895 340.653C83.0178 339.547 83.2486 338.461 83.4204 337.365C83.661 335.842 83.7837 334.24 83.2829 332.78C82.8683 331.732 82.288 330.758 81.5644 329.895C80.926 328.961 80.1183 328.154 79.1831 327.517C78.8983 327.35 78.0882 326.829 77.7985 327.153C77.6512 327.32 77.715 327.767 77.6954 327.974C77.6573 328.291 77.6015 328.606 77.5284 328.917C77.349 329.642 77.0662 330.337 76.6888 330.981Z" fill="#EE8E9E"/>
<path opacity="0.05" d="M94.6888 253.058C94.2518 253.653 94.3402 254.479 94.517 255.196C94.8263 256.493 95.3467 257.737 95.769 259C96.4601 261.268 96.9981 263.579 97.3795 265.919C97.7723 268.033 98.607 270.387 98.2682 272.514C100.829 277.393 102.513 282.685 103.242 288.147C103.433 289.548 100.325 291.356 100.384 292.767C100.502 295.578 102.741 295.804 101.091 298.045C101.008 298.158 101.71 300.669 101.617 300.777C100.944 301.588 100.09 302.252 99.368 302.994C98.4371 304.049 97.6405 305.216 96.9965 306.468C92.7248 314.194 86.5481 322.951 88.4531 331.576C88.492 331.887 88.4346 332.201 88.2889 332.478C88.1431 332.755 87.9159 332.981 87.6381 333.124C87.0742 333.396 86.457 333.538 85.8312 333.542H85.5366C84.1127 332.008 83.9016 329.654 84.0096 327.531C84.5006 317.757 89.4106 308.807 91.7477 299.308C92.593 295.873 93.1028 292.364 93.2698 288.83C93.8148 277.036 94.0358 264.563 90.7019 253.225C90.0096 250.866 89.1896 248.203 90.4368 246.09C91.2224 244.753 92.6806 243.962 94.1242 243.392C97.0681 242.243 100.212 241.695 103.37 241.78C106.529 241.864 109.638 242.579 112.517 243.883C112.522 244.119 112.512 244.356 112.487 244.591C112.362 245.689 112.49 246.802 112.861 247.844C113.066 248.29 113.191 248.769 113.229 249.259C113.229 249.259 113.396 247.358 113.391 247.387C109.586 247.933 105.569 250.424 101.73 250.989C99.7391 251.202 97.7779 251.634 95.8819 252.277C95.42 252.423 95.0071 252.693 94.6888 253.058Z" fill="black"/>
<path d="M68.1799 232.133C67.6659 233.771 67.2126 235.425 66.8198 237.096C66.645 237.674 66.5981 238.283 66.6823 238.88C66.8051 239.44 67.1733 239.942 67.2126 240.512C67.301 241.396 66.6872 242.178 66.3484 242.998C65.4843 245.087 66.4074 247.446 67.3304 249.515L70.0407 255.658L72.2699 260.7C72.9327 262.199 73.5906 263.698 74.2338 265.207C77.1308 272.09 79.4962 279.186 81.3091 286.432C81.3701 286.761 81.4935 287.074 81.6724 287.356C82.0505 287.848 82.733 288.005 83.2829 288.309C84.9523 289.224 85.1438 291.966 83.6168 293.106C83.931 296.797 81.1618 300.36 79.7428 303.78C76.463 311.643 77.0571 320.489 75.9327 328.942L77.2044 328.195C78.427 328.755 78.3828 330.49 79.0407 331.664C80.0227 333.429 82.4384 333.674 84.4417 333.542C85.0659 333.539 85.6816 333.396 86.2436 333.124C86.522 332.981 86.7495 332.756 86.8954 332.479C87.0412 332.202 87.0982 331.887 87.0587 331.576C85.1585 322.951 91.3304 314.194 95.6069 306.468C96.2493 305.217 97.0442 304.05 97.9735 302.994C98.7002 302.227 99.5496 301.583 100.227 300.777C102.113 298.512 102.353 295.317 102.226 292.369C101.926 285.435 100.099 278.653 96.8737 272.51C97.2174 270.387 96.3827 268.033 95.9899 265.919C95.6071 263.58 95.0641 261.27 94.3647 259.005C93.9425 257.732 93.4269 256.493 93.1127 255.196C92.9408 254.479 92.8475 253.653 93.2845 253.058C93.6074 252.691 94.0254 252.421 94.4924 252.277C96.3884 251.634 98.3495 251.202 100.34 250.989L113.514 249.097C113.936 246.389 114.368 243.372 114.073 240.649C113.757 238.126 112.707 235.752 111.055 233.821C109.403 231.889 107.221 230.485 104.779 229.784C104.204 229.631 103.532 229.533 103.06 229.897C91.4358 227.613 79.4182 228.383 68.1799 232.133Z" fill="#303D5C"/>
<path d="M80.1258 160.918C80.3178 162.205 80.1176 163.52 79.5514 164.692C79.1688 165.332 78.6691 165.894 78.0784 166.348C76.8046 167.373 75.3237 168.109 73.738 168.506C72.8051 168.742 71.774 168.899 71.1406 169.641C70.2175 170.756 70.8362 172.447 71.6316 173.666C72.9965 175.789 74.8918 177.71 77.3222 178.374C79.2862 178.905 81.3337 178.58 83.3173 178.924C84.7559 179.175 86.1111 179.77 87.5301 180.109C89.5492 180.571 91.6518 180.521 93.647 179.964C95.6422 179.407 97.4669 178.361 98.9556 176.919C96.8443 175.297 94.6544 173.572 93.5546 171.145C92.7805 169.407 92.6347 167.454 93.1421 165.621C93.6331 163.822 94.787 162.073 94.4335 160.215C94.08 158.357 92.2731 157.114 90.5055 156.495C88.8827 156.001 87.2149 155.671 85.5268 155.507C84.5988 155.379 78.7068 154.077 78.3386 154.721C78.1324 155.084 79.355 157.237 79.5072 157.714C79.8661 158.746 80.0745 159.826 80.1258 160.918Z" fill="#EE8E9E"/>
<path d="M87.5546 165.223C94.1549 165.223 99.5055 159.867 99.5055 153.261C99.5055 146.655 94.1549 141.299 87.5546 141.299C80.9544 141.299 75.6038 146.655 75.6038 153.261C75.6038 159.867 80.9544 165.223 87.5546 165.223Z" fill="#EE8E9E"/>
<path d="M81.2403 173.032L89.3467 174.398C91.3392 174.804 93.3674 175.008 95.4007 175.007C96.5109 174.897 97.6293 174.897 98.7395 175.007C99.5054 175.135 100.237 175.425 101.003 175.523C101.951 175.641 102.913 175.46 103.861 175.582C105.618 175.808 107.067 177.027 108.402 178.192C109.969 179.558 111.653 181.141 111.775 183.229C111.797 183.466 111.764 183.705 111.677 183.927C111.523 184.178 111.317 184.392 111.073 184.556C109.6 185.78 108.751 187.603 107.69 189.215C106.598 190.878 105.238 192.348 103.664 193.564C103.311 193.338 102.638 193.933 102.79 194.326C102.942 194.719 103.33 194.989 103.458 195.388C103.748 196.307 102.613 196.985 102.142 197.845C101.671 198.705 101.911 199.752 101.862 200.73C101.803 201.806 101.371 202.833 101.239 203.899C100.91 206.391 102.142 209.015 101.273 211.369C102.338 211.237 103.301 212.156 103.6 213.183C103.9 214.21 103.708 215.316 103.507 216.367C104.191 216.777 104.751 217.367 105.124 218.072C105.498 218.777 105.672 219.571 105.628 220.368C105.586 220.462 105.566 220.564 105.569 220.667C105.572 220.77 105.598 220.871 105.645 220.962C105.693 221.053 105.76 221.133 105.842 221.195C105.924 221.257 106.018 221.3 106.119 221.321C106.858 221.629 107.489 222.15 107.932 222.818C108.376 223.485 108.611 224.269 108.608 225.071C108.576 225.338 108.601 225.61 108.682 225.867C108.825 226.113 109.026 226.32 109.266 226.471C109.811 226.909 110.25 227.465 110.551 228.096C110.852 228.727 111.007 229.418 111.005 230.118C111.005 231.066 110.612 232.084 109.772 232.511C108.054 233.386 106.212 233.725 104.327 234.133C102.59 234.544 100.831 234.857 99.0586 235.071C97.4256 235.205 95.7868 235.256 94.1486 235.224L83.3074 235.18C80.2583 235.18 77.2092 235.18 74.17 234.949C71.332 234.757 68.4302 234.403 65.6806 235.15C65.3369 234.565 65.8869 233.892 66.2256 233.307C66.614 232.51 66.8251 231.638 66.8443 230.752L67.5317 223.523C67.6625 222.529 67.6806 221.523 67.5857 220.525C67.4384 219.458 67.0358 218.451 66.8296 217.394C66.4368 215.37 66.7952 213.276 66.7019 211.212C66.5617 209.384 66.2443 207.573 65.7543 205.806L63.6037 196.96C63.26 195.54 63.0783 193.889 62.5481 192.537C60.895 188.278 59.1618 184.065 57.3484 179.897C57.2828 179.715 57.2576 179.52 57.2745 179.326C57.2915 179.133 57.3502 178.945 57.4466 178.777L59.2388 175.563C59.7182 174.649 60.2665 173.774 60.8787 172.943C62.3923 171.028 64.5357 169.711 66.9278 169.228C69.3231 168.759 71.8066 169.127 73.9638 170.27C74.7984 170.717 75.5742 171.253 76.4187 171.695C77.8672 172.383 79.6348 173.14 81.2403 173.032Z" fill="#6C63FF"/>
<path d="M110.003 180.91L112.826 184.679C113.086 184.999 113.307 185.349 113.484 185.721C113.906 186.704 113.676 187.864 113.901 188.92C114.077 189.597 114.357 190.242 114.731 190.832C115.793 192.7 116.992 194.485 118.32 196.174C118.934 197.031 119.69 197.778 120.554 198.38C120.988 198.68 121.48 198.883 121.999 198.976C122.517 199.068 123.049 199.048 123.559 198.916C123.133 199.082 122.783 199.401 122.577 199.811C121.502 201.943 121.424 204.469 121.88 206.809C122.009 207.612 122.274 208.386 122.666 209.099C123.058 209.818 123.696 210.371 124.463 210.657C124.415 211.013 124.294 211.356 124.109 211.664C123.924 211.972 123.678 212.239 123.386 212.449C123.094 212.659 122.763 212.807 122.412 212.884C122.061 212.961 121.698 212.966 121.345 212.898C120.789 212.731 120.266 212.47 119.798 212.126L115.262 209.177C114.504 208.724 113.797 208.192 113.15 207.59C112.301 206.745 111.712 205.673 110.887 204.804C109.483 203.329 107.42 202.425 106.429 200.636C105.805 199.516 105.697 198.179 105.314 196.97C105.064 196.169 104.695 195.412 104.455 194.606C103.708 192.119 104.248 189.392 105.383 187.058C106.517 184.723 108.324 182.895 110.003 180.91Z" fill="#6C63FF"/>
<path d="M99.3631 146.44C98.2571 144.723 96.8299 143.236 95.1602 142.061C92.9261 140.395 90.3582 139.009 87.5743 138.852C86.4103 138.793 85.247 138.982 84.1618 139.407C84.1078 136.031 83.2731 133.78 81.1619 134.119C77.2339 134.753 72.864 136.267 71.3419 139.953C70.2077 142.739 71.0866 145.875 71.3763 148.868C71.4861 149.658 71.4579 150.461 71.2928 151.241C70.9688 152.504 70.0751 153.527 69.211 154.505C68.0105 155.746 67.0026 157.161 66.2208 158.701C65.5138 160.274 65.2879 162.142 66.0195 163.714C66.2684 164.118 66.4352 164.567 66.5105 165.036C66.5596 166.058 65.4892 166.707 64.7036 167.361C61.7577 169.818 61.8804 174.241 61.8559 178.089C61.8106 185.935 60.0703 193.679 56.7544 200.789C57.9971 201.418 59.4007 201.659 60.782 201.478C62.1633 201.298 63.4581 200.704 64.4974 199.776C64.0891 201.523 63.5 203.223 62.7396 204.848C65.2339 206.057 68.2437 204.071 69.4958 201.594C70.7478 199.118 70.8951 196.238 71.7838 193.609C72.6725 190.979 74.2388 188.694 74.9311 186.045C75.1521 185.17 75.2895 184.237 75.8247 183.509C76.2757 182.983 76.8057 182.531 77.3959 182.168C79.9687 180.32 76.1782 166.319 77.1848 163.311C78.6578 163.64 81.4319 156.431 82.9982 149.059C84.0905 149.436 85.2557 149.552 86.4008 149.398C86.7989 149.312 87.2074 149.284 87.6136 149.315C87.9907 149.392 88.3503 149.539 88.6741 149.747C89.8331 150.459 91.0444 151.082 92.2977 151.61C94.8901 152.593 97.7379 152.45 100.502 152.313C100.877 150.281 100.47 148.183 99.3631 146.44Z" fill="#303D5C"/>
<g opacity="0.1">
<path opacity="0.1" d="M58.1586 200.789C61.4847 193.688 63.2335 185.95 63.2847 178.108C63.3092 174.275 63.1815 169.823 66.1324 167.38C66.918 166.727 67.9884 166.078 67.9393 165.056C67.8621 164.588 67.6954 164.139 67.4483 163.734C66.7167 162.171 66.9573 160.294 67.6447 158.721C68.4267 157.179 69.4364 155.764 70.6398 154.524C71.499 153.541 72.3976 152.524 72.7167 151.261C72.8813 150.481 72.9112 149.678 72.8051 148.887C72.5105 145.894 71.6365 142.759 72.7707 139.973C74.2437 136.405 78.3632 134.876 82.193 134.208C81.8599 134.102 81.506 134.078 81.1619 134.139C77.2339 134.773 72.864 136.287 71.3419 139.973C70.2077 142.759 71.0866 145.894 71.3763 148.887C71.4861 149.677 71.4579 150.481 71.2928 151.261C70.9688 152.524 70.0751 153.546 69.211 154.524C68.0105 155.766 67.0026 157.181 66.2208 158.721C65.5138 160.294 65.2879 162.161 66.0195 163.734C66.2684 164.138 66.4352 164.587 66.5105 165.056C66.5596 166.078 65.4892 166.727 64.7036 167.38C61.7577 169.837 61.8804 174.26 61.8559 178.108C61.8078 185.948 60.0676 193.685 56.7544 200.789C57.9226 201.393 59.2423 201.641 60.5498 201.501C59.7142 201.421 58.9021 201.179 58.1586 200.789Z" fill="black"/>
<path opacity="0.1" d="M64.1439 204.828C64.8992 203.203 65.4834 201.503 65.8869 199.756C65.3828 200.218 64.8095 200.598 64.1881 200.882C63.805 202.23 63.3124 203.545 62.7151 204.813C63.4333 205.155 64.2418 205.259 65.0228 205.108C64.7192 205.052 64.4239 204.958 64.1439 204.828Z" fill="black"/>
<path opacity="0.1" d="M85.5661 139.407C86.2964 139.123 87.0636 138.944 87.8443 138.877H87.5743C86.8979 138.842 86.2198 138.893 85.5563 139.029C85.5612 139.137 85.5661 139.27 85.5661 139.407Z" fill="black"/>
<path opacity="0.1" d="M93.702 151.595C92.4503 151.067 91.2406 150.444 90.0833 149.733C89.7578 149.524 89.3966 149.377 89.0179 149.3C88.6466 149.267 88.2725 149.29 87.9082 149.369C88.1743 149.466 88.4307 149.588 88.6742 149.733C89.8331 150.444 91.0445 151.067 92.2977 151.595C94.2493 152.239 96.3054 152.506 98.3566 152.381C96.7721 152.381 95.1989 152.115 93.702 151.595Z" fill="black"/>
<path opacity="0.1" d="M84.4025 149.045C84.4025 149.153 84.3583 149.261 84.3337 149.369C84.9221 149.457 85.5189 149.473 86.1112 149.418C85.5295 149.358 84.9564 149.232 84.4025 149.045Z" fill="black"/>
</g>
<path d="M59.5285 204.519C59.5968 205.152 59.5268 205.792 59.3233 206.395C59.1199 206.999 58.7878 207.551 58.3501 208.013C57.8524 208.493 57.2926 208.905 56.6856 209.236C56.1 209.638 55.4264 209.893 54.7217 209.978C53.7718 209.948 52.8693 209.556 52.1979 208.883C50.1161 207.054 49.0752 204.347 48.1128 201.747C46.8412 198.307 45.5744 194.832 45.0294 191.2C44.4451 187.308 44.6955 183.278 43.5809 179.499C44.5629 177.533 45.2012 175.342 46.3256 173.435C47.0391 172.299 47.6709 171.113 48.2159 169.887C49.26 167.276 49.3779 164.386 48.5498 161.699C48.7467 161.571 48.9793 161.508 49.2141 161.521C49.4488 161.533 49.6735 161.62 49.8559 161.768C50.2128 162.075 50.4835 162.469 50.6415 162.913C51.2898 164.429 51.5595 166.08 51.4271 167.724C51.343 168.12 51.3896 168.532 51.5596 168.899C51.7118 169.087 51.9078 169.235 52.1304 169.329C52.3531 169.423 52.5955 169.461 52.8362 169.439C53.8373 169.39 54.8277 169.21 55.7822 168.904C58.7483 168.146 61.8204 167.892 64.8706 168.152C65.4852 168.17 66.0891 168.317 66.6431 168.584C66.9169 168.721 67.1474 168.931 67.3087 169.192C67.47 169.452 67.5557 169.752 67.5563 170.059L60.2896 171.125C59.7425 171.156 59.2144 171.336 58.7626 171.646C58.5452 171.81 58.4015 172.054 58.3629 172.323C58.3243 172.593 58.3938 172.867 58.5563 173.086C58.7099 173.212 58.8742 173.323 59.0473 173.42C59.2337 173.561 59.3837 173.745 59.4852 173.956C59.5866 174.166 59.6365 174.398 59.6308 174.632C59.625 174.866 59.5638 175.095 59.4521 175.3C59.3404 175.506 59.1815 175.682 58.9884 175.813C58.8056 175.898 58.6393 176.014 58.4974 176.157C58.2028 176.555 58.5956 177.081 58.7233 177.563C58.7784 177.918 58.7243 178.282 58.5682 178.606C58.4121 178.93 58.1614 179.198 57.8493 179.376C57.2191 179.722 56.5325 179.954 55.8215 180.059C54.3946 180.389 53.0046 180.861 51.6726 181.47C51.2389 181.625 50.8623 181.907 50.5924 182.281C50.2339 182.89 50.4696 183.657 50.7151 184.32L52.6104 189.421C52.905 190.222 53.2045 191.024 53.5924 191.795C54.0834 192.778 54.6677 193.731 55.1636 194.744C55.6595 195.756 55.9835 196.636 56.3469 197.599C57.2945 200.199 59.2045 201.771 59.5285 204.519Z" fill="#EE8E9E"/>
<path d="M147.751 171.425H125.101V193.373H147.751V171.425Z" fill="url(#paint12_linear)"/>
<path d="M147.363 171.803H125.494V192.994H147.363V171.803Z" fill="#7CFCFF"/>
<path d="M143.572 170.132C143.168 170.433 142.876 170.86 142.743 171.346C142.712 171.446 142.714 171.554 142.748 171.653C142.782 171.752 142.848 171.837 142.934 171.897C143.043 171.931 143.159 171.931 143.268 171.897C143.812 171.8 144.32 171.561 144.741 171.204C144.574 171.292 144.426 171.413 144.304 171.558C144.244 171.631 144.207 171.72 144.196 171.814C144.186 171.908 144.203 172.004 144.245 172.088C144.305 172.161 144.38 172.221 144.465 172.265C144.549 172.308 144.641 172.333 144.736 172.339C145.437 172.466 146.157 172.433 146.842 172.241C146.523 172.36 146.227 172.534 145.968 172.757C145.84 172.87 145.738 173.01 145.669 173.167C145.6 173.324 145.567 173.494 145.571 173.666C145.571 173.73 145.586 173.794 145.613 173.852C145.64 173.911 145.679 173.963 145.728 174.005C145.799 174.05 145.88 174.079 145.964 174.088C146.613 174.203 147.278 174.203 147.928 174.088C148.095 174.082 148.258 174.033 148.402 173.947C148.546 173.862 148.667 173.741 148.752 173.597C148.786 173.434 148.786 173.266 148.753 173.103C148.72 172.94 148.655 172.786 148.561 172.649C148.213 171.898 148.044 171.077 148.07 170.25C148.091 170.083 148.067 169.914 148.001 169.759C147.893 169.609 147.74 169.497 147.564 169.439C146.872 169.135 145.929 168.712 145.158 168.948C144.557 169.234 144.018 169.637 143.572 170.132Z" fill="#EE8E9E"/>
</g>
<defs>
<linearGradient id="paint0_linear" x1="207.132" y1="162.412" x2="207.132" y2="140.464" gradientUnits="userSpaceOnUse">
<stop stop-color="#808080" stop-opacity="0.25"/>
<stop offset="0.54" stop-color="#808080" stop-opacity="0.12"/>
<stop offset="1" stop-color="#808080" stop-opacity="0.1"/>
</linearGradient>
<linearGradient id="paint1_linear" x1="11950.1" y1="7176.56" x2="11950.1" y2="6196.37" gradientUnits="userSpaceOnUse">
<stop stop-color="#808080" stop-opacity="0.25"/>
<stop offset="0.54" stop-color="#808080" stop-opacity="0.12"/>
<stop offset="1" stop-color="#808080" stop-opacity="0.1"/>
</linearGradient>
<linearGradient id="paint2_linear" x1="16184.8" y1="10587.3" x2="16184.8" y2="9607.14" gradientUnits="userSpaceOnUse">
<stop stop-color="#808080" stop-opacity="0.25"/>
<stop offset="0.54" stop-color="#808080" stop-opacity="0.12"/>
<stop offset="1" stop-color="#808080" stop-opacity="0.1"/>
</linearGradient>
<linearGradient id="paint3_linear" x1="6783.47" y1="5607.84" x2="6783.47" y2="4627.65" gradientUnits="userSpaceOnUse">
<stop stop-color="#808080" stop-opacity="0.25"/>
<stop offset="0.54" stop-color="#808080" stop-opacity="0.12"/>
<stop offset="1" stop-color="#808080" stop-opacity="0.1"/>
</linearGradient>
<linearGradient id="paint4_linear" x1="8904.55" y1="7043.95" x2="8904.55" y2="6063.76" gradientUnits="userSpaceOnUse">
<stop stop-color="#808080" stop-opacity="0.25"/>
<stop offset="0.54" stop-color="#808080" stop-opacity="0.12"/>
<stop offset="1" stop-color="#808080" stop-opacity="0.1"/>
</linearGradient>
<linearGradient id="paint5_linear" x1="17433.5" y1="10580.1" x2="17433.5" y2="9599.96" gradientUnits="userSpaceOnUse">
<stop stop-color="#808080" stop-opacity="0.25"/>
<stop offset="0.54" stop-color="#808080" stop-opacity="0.12"/>
<stop offset="1" stop-color="#808080" stop-opacity="0.1"/>
</linearGradient>
<linearGradient id="paint6_linear" x1="19307.9" y1="5621.07" x2="19307.9" y2="4640.88" gradientUnits="userSpaceOnUse">
<stop stop-color="#808080" stop-opacity="0.25"/>
<stop offset="0.54" stop-color="#808080" stop-opacity="0.12"/>
<stop offset="1" stop-color="#808080" stop-opacity="0.1"/>
</linearGradient>
<linearGradient id="paint7_linear" x1="19192.2" y1="8807.45" x2="19192.2" y2="7827.26" gradientUnits="userSpaceOnUse">
<stop stop-color="#808080" stop-opacity="0.25"/>
<stop offset="0.54" stop-color="#808080" stop-opacity="0.12"/>
<stop offset="1" stop-color="#808080" stop-opacity="0.1"/>
</linearGradient>
<linearGradient id="paint8_linear" x1="20002.1" y1="9031.84" x2="20002.1" y2="8051.65" gradientUnits="userSpaceOnUse">
<stop stop-color="#808080" stop-opacity="0.25"/>
<stop offset="0.54" stop-color="#808080" stop-opacity="0.12"/>
<stop offset="1" stop-color="#808080" stop-opacity="0.1"/>
</linearGradient>
<linearGradient id="paint9_linear" x1="16587.3" y1="10230.3" x2="16587.3" y2="9250.13" gradientUnits="userSpaceOnUse">
<stop stop-color="#808080" stop-opacity="0.25"/>
<stop offset="0.54" stop-color="#808080" stop-opacity="0.12"/>
<stop offset="1" stop-color="#808080" stop-opacity="0.1"/>
</linearGradient>
<linearGradient id="paint10_linear" x1="16703" y1="7201.02" x2="16703" y2="6220.84" gradientUnits="userSpaceOnUse">
<stop stop-color="#808080" stop-opacity="0.25"/>
<stop offset="0.54" stop-color="#808080" stop-opacity="0.12"/>
<stop offset="1" stop-color="#808080" stop-opacity="0.1"/>
</linearGradient>
<linearGradient id="paint11_linear" x1="13406.7" y1="127307" x2="37739.8" y2="127307" gradientUnits="userSpaceOnUse">
<stop stop-color="#808080" stop-opacity="0.25"/>
<stop offset="0.54" stop-color="#808080" stop-opacity="0.12"/>
<stop offset="1" stop-color="#808080" stop-opacity="0.1"/>
</linearGradient>
<linearGradient id="paint12_linear" x1="6418.55" y1="8807.45" x2="6418.55" y2="7827.26" gradientUnits="userSpaceOnUse">
<stop stop-color="#808080" stop-opacity="0.25"/>
<stop offset="0.54" stop-color="#808080" stop-opacity="0.12"/>
<stop offset="1" stop-color="#808080" stop-opacity="0.1"/>
</linearGradient>
<clipPath id="clip0">
<rect width="556" height="377" fill="white"/>
</clipPath>
</defs>
</svg>
