<svg width="50" height="50" viewBox="0 0 50 50" fill="none" xmlns="http://www.w3.org/2000/svg">
<path d="M48 0H2C0.89375 0 0 0.89375 0 2V48C0 49.1063 0.89375 50 2 50H48C49.1063 50 50 49.1063 50 48V2C50 0.89375 49.1063 0 48 0ZM38.375 29.6063C38.375 33.0625 35.5812 35.8625 32.1437 35.8625H19.2875V39.2C19.2875 39.5563 18.8813 39.75 18.6063 39.5312L11.7875 34.175C11.5688 34.0062 11.5688 33.675 11.7875 33.5062L18.6063 28.15C18.8813 27.9313 19.2875 28.1313 19.2875 28.4813V31.8187H32.1437C33.3687 31.8187 34.3625 30.8188 34.3625 29.5938V24.6625C34.3625 24.4312 34.55 24.2375 34.7875 24.2375H37.9562C38.1875 24.2375 38.3812 24.425 38.3812 24.6625V29.6063H38.375ZM38.2125 16.4875L31.3937 21.8438C31.1187 22.0625 30.7125 21.8625 30.7125 21.5125V18.175H17.8563C16.6313 18.175 15.6375 19.175 15.6375 20.4V25.3312C15.6375 25.5625 15.45 25.7562 15.2125 25.7562H12.0438C11.8125 25.7562 11.6187 25.5687 11.6187 25.3312V20.4C11.6187 16.9438 14.4125 14.1437 17.85 14.1437H30.7062V10.8062C30.7062 10.45 31.1125 10.2563 31.3875 10.475L38.2062 15.8312C38.4312 15.9875 38.4313 16.3187 38.2125 16.4875Z" fill="black"/>
</svg>
