<svg width="551" height="326" viewBox="0 0 551 326" fill="none" xmlns="http://www.w3.org/2000/svg">
<path d="M541 6.06494H10C4.47715 6.06494 0 10.5421 0 16.0649V315.065C0 320.588 4.47715 325.065 10 325.065H541C546.523 325.065 551 320.588 551 315.065V16.0649C551 10.5421 546.523 6.06494 541 6.06494Z" fill="#F6F8FC"/>
<path d="M454 41.0649H239V186.065H454V41.0649Z" fill="#CEF5E6"/>
<path d="M137.928 39.215L111.76 151.53L27.695 73.1L137.928 39.215Z" fill="#F1BDC7"/>
<path d="M256.014 85.999H250.169V96.0649H246.871V71.1821H255.108C257.911 71.1821 260.064 71.8201 261.568 73.0962C263.084 74.3722 263.841 76.2293 263.841 78.6675C263.841 80.217 263.42 81.5671 262.577 82.7178C261.745 83.8685 260.583 84.7287 259.09 85.2983L264.935 95.8599V96.0649H261.415L256.014 85.999ZM250.169 83.3159H255.211C256.84 83.3159 258.133 82.8944 259.09 82.0513C260.059 81.2082 260.543 80.0802 260.543 78.6675C260.543 77.1294 260.082 75.9502 259.159 75.1299C258.247 74.3096 256.926 73.8937 255.194 73.8823H250.169V83.3159ZM267.123 86.6484C267.123 84.8369 267.476 83.2077 268.182 81.7607C268.9 80.3138 269.891 79.1973 271.156 78.4111C272.432 77.625 273.884 77.2319 275.514 77.2319C278.032 77.2319 280.065 78.1035 281.615 79.8467C283.176 81.5898 283.956 83.9084 283.956 86.8022V87.0244C283.956 88.8245 283.609 90.4424 282.914 91.8779C282.23 93.3021 281.244 94.4129 279.957 95.2104C278.681 96.008 277.211 96.4067 275.548 96.4067C273.041 96.4067 271.008 95.5352 269.447 93.792C267.897 92.0488 267.123 89.7417 267.123 86.8706V86.6484ZM270.301 87.0244C270.301 89.0752 270.774 90.7215 271.72 91.9634C272.677 93.2052 273.953 93.8262 275.548 93.8262C277.154 93.8262 278.43 93.1995 279.376 91.9463C280.322 90.6816 280.794 88.9157 280.794 86.6484C280.794 84.6204 280.31 82.9798 279.342 81.7266C278.385 80.4619 277.109 79.8296 275.514 79.8296C273.953 79.8296 272.694 80.4505 271.737 81.6924C270.78 82.9342 270.301 84.7116 270.301 87.0244ZM291.083 79.8125C292.484 78.0921 294.307 77.2319 296.551 77.2319C300.459 77.2319 302.43 79.4365 302.464 83.8457V96.0649H299.303V83.8286C299.291 82.4956 298.984 81.5101 298.38 80.8721C297.787 80.234 296.859 79.915 295.594 79.915C294.569 79.915 293.669 80.1885 292.894 80.7354C292.119 81.2822 291.515 82 291.083 82.8887V96.0649H287.921V69.8149H291.083V79.8125ZM310.633 96.0649H307.472V77.5737H310.633V96.0649ZM307.215 72.6689C307.215 72.1562 307.369 71.7233 307.677 71.3701C307.996 71.0169 308.463 70.8403 309.078 70.8403C309.693 70.8403 310.16 71.0169 310.479 71.3701C310.799 71.7233 310.958 72.1562 310.958 72.6689C310.958 73.1816 310.799 73.6089 310.479 73.9507C310.16 74.2925 309.693 74.4634 309.078 74.4634C308.463 74.4634 307.996 74.2925 307.677 73.9507C307.369 73.6089 307.215 73.1816 307.215 72.6689ZM319.999 73.0962V77.5737H323.451V80.0176H319.999V91.4849C319.999 92.2254 320.152 92.7837 320.46 93.1597C320.768 93.5243 321.292 93.7065 322.032 93.7065C322.397 93.7065 322.898 93.6382 323.536 93.5015V96.0649C322.704 96.2928 321.896 96.4067 321.109 96.4067C319.697 96.4067 318.631 95.9795 317.914 95.125C317.196 94.2705 316.837 93.0571 316.837 91.4849V80.0176H313.47V77.5737H316.837V73.0962H319.999ZM346.761 71.1821H350.06V88.8018C350.06 91.1829 349.342 93.0457 347.906 94.3901C346.482 95.7345 344.579 96.4067 342.198 96.4067C339.726 96.4067 337.8 95.7744 336.422 94.5098C335.043 93.2451 334.354 91.4735 334.354 89.1948H337.635C337.635 90.619 338.023 91.7298 338.797 92.5273C339.583 93.3249 340.717 93.7236 342.198 93.7236C343.554 93.7236 344.648 93.2964 345.479 92.4419C346.323 91.5874 346.75 90.3911 346.761 88.853V71.1821ZM366.568 96.0649C366.386 95.7004 366.238 95.0509 366.124 94.1167C364.654 95.6434 362.9 96.4067 360.86 96.4067C359.037 96.4067 357.539 95.894 356.366 94.8687C355.204 93.8319 354.623 92.5216 354.623 90.938C354.623 89.0125 355.352 87.52 356.81 86.4604C358.28 85.3895 360.342 84.854 362.997 84.854H366.073V83.4014C366.073 82.2962 365.742 81.4189 365.082 80.7695C364.421 80.1087 363.447 79.7783 362.159 79.7783C361.031 79.7783 360.086 80.0632 359.322 80.6328C358.559 81.2025 358.177 81.8918 358.177 82.7007H354.999C354.999 81.7778 355.323 80.8892 355.973 80.0347C356.633 79.1688 357.522 78.4852 358.639 77.9839C359.767 77.4826 361.003 77.2319 362.347 77.2319C364.478 77.2319 366.147 77.7674 367.354 78.8384C368.562 79.8979 369.189 81.362 369.234 83.2305V91.7412C369.234 93.4388 369.451 94.7889 369.884 95.7915V96.0649H366.568ZM361.322 93.6553C362.313 93.6553 363.253 93.3989 364.142 92.8862C365.03 92.3735 365.674 91.707 366.073 90.8867V87.0928H363.595C359.721 87.0928 357.784 88.2264 357.784 90.4937C357.784 91.4849 358.115 92.2596 358.775 92.8179C359.436 93.3761 360.285 93.6553 361.322 93.6553ZM377.181 77.5737L377.284 79.8979C378.696 78.1206 380.542 77.2319 382.821 77.2319C386.729 77.2319 388.7 79.4365 388.734 83.8457V96.0649H385.572V83.8286C385.561 82.4956 385.253 81.5101 384.649 80.8721C384.057 80.234 383.128 79.915 381.864 79.915C380.838 79.915 379.938 80.1885 379.164 80.7354C378.389 81.2822 377.785 82 377.352 82.8887V96.0649H374.19V77.5737H377.181ZM392.75 86.6655C392.75 83.783 393.417 81.493 394.75 79.7954C396.083 78.0864 397.848 77.2319 400.047 77.2319C402.303 77.2319 404.063 78.0295 405.328 79.6245L405.482 77.5737H408.37V95.6206C408.37 98.0132 407.658 99.8988 406.234 101.277C404.821 102.656 402.918 103.345 400.526 103.345C399.193 103.345 397.888 103.06 396.612 102.491C395.336 101.921 394.362 101.141 393.69 100.149L395.331 98.2524C396.686 99.9272 398.344 100.765 400.304 100.765C401.842 100.765 403.038 100.332 403.893 99.4658C404.758 98.5999 405.191 97.3809 405.191 95.8086V94.2192C403.927 95.6776 402.201 96.4067 400.013 96.4067C397.848 96.4067 396.094 95.5352 394.75 93.792C393.417 92.0488 392.75 89.6733 392.75 86.6655ZM395.929 87.0244C395.929 89.1094 396.356 90.75 397.21 91.9463C398.065 93.1312 399.261 93.7236 400.799 93.7236C402.793 93.7236 404.257 92.8179 405.191 91.0063V82.564C404.223 80.798 402.77 79.915 400.833 79.915C399.295 79.915 398.093 80.5132 397.228 81.7095C396.362 82.9058 395.929 84.6774 395.929 87.0244ZM416.59 96.0649H413.429V77.5737H416.59V96.0649ZM413.172 72.6689C413.172 72.1562 413.326 71.7233 413.634 71.3701C413.953 71.0169 414.42 70.8403 415.035 70.8403C415.65 70.8403 416.118 71.0169 416.437 71.3701C416.756 71.7233 416.915 72.1562 416.915 72.6689C416.915 73.1816 416.756 73.6089 416.437 73.9507C416.118 74.2925 415.65 74.4634 415.035 74.4634C414.42 74.4634 413.953 74.2925 413.634 73.9507C413.326 73.6089 413.172 73.1816 413.172 72.6689ZM420.897 86.6655C420.897 83.8286 421.569 81.55 422.914 79.8296C424.258 78.0978 426.018 77.2319 428.194 77.2319C430.359 77.2319 432.074 77.9725 433.338 79.4536V69.8149H436.5V96.0649H433.595L433.441 94.0825C432.176 95.632 430.416 96.4067 428.16 96.4067C426.018 96.4067 424.269 95.5295 422.914 93.7749C421.569 92.0203 420.897 89.7303 420.897 86.9048V86.6655ZM424.059 87.0244C424.059 89.1208 424.492 90.7614 425.357 91.9463C426.223 93.1312 427.42 93.7236 428.946 93.7236C430.951 93.7236 432.416 92.8236 433.338 91.0234V82.5298C432.393 80.7866 430.94 79.915 428.98 79.915C427.431 79.915 426.223 80.5132 425.357 81.7095C424.492 82.9058 424.059 84.6774 424.059 87.0244Z" fill="black"/>
<path d="M251.008 124.459C249.078 123.905 247.672 123.225 246.789 122.42C245.914 121.608 245.477 120.608 245.477 119.42C245.477 118.077 246.012 116.967 247.082 116.092C248.16 115.209 249.559 114.768 251.277 114.768C252.449 114.768 253.492 114.995 254.406 115.448C255.328 115.901 256.039 116.526 256.539 117.323C257.047 118.12 257.301 118.991 257.301 119.936H255.039C255.039 118.905 254.711 118.096 254.055 117.51C253.398 116.917 252.473 116.62 251.277 116.62C250.168 116.62 249.301 116.866 248.676 117.358C248.059 117.842 247.75 118.518 247.75 119.385C247.75 120.081 248.043 120.67 248.629 121.155C249.223 121.631 250.227 122.069 251.641 122.467C253.062 122.866 254.172 123.307 254.969 123.792C255.773 124.268 256.367 124.827 256.75 125.467C257.141 126.108 257.336 126.862 257.336 127.729C257.336 129.112 256.797 130.221 255.719 131.057C254.641 131.885 253.199 132.299 251.395 132.299C250.223 132.299 249.129 132.077 248.113 131.631C247.098 131.178 246.312 130.561 245.758 129.78C245.211 128.999 244.938 128.112 244.938 127.12H247.199C247.199 128.151 247.578 128.967 248.336 129.569C249.102 130.163 250.121 130.459 251.395 130.459C252.582 130.459 253.492 130.217 254.125 129.733C254.758 129.249 255.074 128.588 255.074 127.752C255.074 126.917 254.781 126.272 254.195 125.819C253.609 125.358 252.547 124.905 251.008 124.459ZM265.152 132.299C263.434 132.299 262.035 131.737 260.957 130.612C259.879 129.479 259.34 127.967 259.34 126.077V125.678C259.34 124.42 259.578 123.299 260.055 122.315C260.539 121.323 261.211 120.549 262.07 119.995C262.938 119.432 263.875 119.151 264.883 119.151C266.531 119.151 267.812 119.694 268.727 120.78C269.641 121.866 270.098 123.42 270.098 125.444V126.346H261.508C261.539 127.596 261.902 128.608 262.598 129.381C263.301 130.147 264.191 130.53 265.27 130.53C266.035 130.53 266.684 130.374 267.215 130.061C267.746 129.749 268.211 129.334 268.609 128.819L269.934 129.85C268.871 131.483 267.277 132.299 265.152 132.299ZM264.883 120.932C264.008 120.932 263.273 121.252 262.68 121.893C262.086 122.526 261.719 123.417 261.578 124.565H267.93V124.401C267.867 123.299 267.57 122.448 267.039 121.846C266.508 121.237 265.789 120.932 264.883 120.932ZM274.656 119.385L274.715 120.792C275.645 119.698 276.898 119.151 278.477 119.151C280.25 119.151 281.457 119.831 282.098 121.19C282.52 120.581 283.066 120.088 283.738 119.713C284.418 119.338 285.219 119.151 286.141 119.151C288.922 119.151 290.336 120.624 290.383 123.569V132.065H288.215V123.698C288.215 122.792 288.008 122.116 287.594 121.67C287.18 121.217 286.484 120.991 285.508 120.991C284.703 120.991 284.035 121.233 283.504 121.717C282.973 122.194 282.664 122.838 282.578 123.651V132.065H280.398V123.756C280.398 121.913 279.496 120.991 277.691 120.991C276.27 120.991 275.297 121.596 274.773 122.807V132.065H272.605V119.385H274.656ZM310.41 116.221L303.344 132.065H301.07L308.113 116.784H298.879V115.002H310.41V116.221ZM321.203 135.229H319.457V115.002H321.203V135.229ZM343.75 126.651C343.539 128.456 342.871 129.85 341.746 130.834C340.629 131.811 339.141 132.299 337.281 132.299C335.266 132.299 333.648 131.577 332.43 130.131C331.219 128.686 330.613 126.752 330.613 124.331V122.69C330.613 121.104 330.895 119.709 331.457 118.506C332.027 117.303 332.832 116.381 333.871 115.741C334.91 115.092 336.113 114.768 337.48 114.768C339.293 114.768 340.746 115.276 341.84 116.292C342.934 117.299 343.57 118.698 343.75 120.487H341.488C341.293 119.127 340.867 118.143 340.211 117.534C339.562 116.924 338.652 116.62 337.48 116.62C336.043 116.62 334.914 117.151 334.094 118.213C333.281 119.276 332.875 120.788 332.875 122.749V124.401C332.875 126.252 333.262 127.725 334.035 128.819C334.809 129.913 335.891 130.459 337.281 130.459C338.531 130.459 339.488 130.178 340.152 129.616C340.824 129.045 341.27 128.057 341.488 126.651H343.75ZM345.918 125.608C345.918 124.366 346.16 123.249 346.645 122.256C347.137 121.264 347.816 120.499 348.684 119.959C349.559 119.42 350.555 119.151 351.672 119.151C353.398 119.151 354.793 119.749 355.855 120.944C356.926 122.139 357.461 123.729 357.461 125.713V125.866C357.461 127.1 357.223 128.209 356.746 129.194C356.277 130.17 355.602 130.932 354.719 131.479C353.844 132.026 352.836 132.299 351.695 132.299C349.977 132.299 348.582 131.702 347.512 130.506C346.449 129.311 345.918 127.729 345.918 125.76V125.608ZM348.098 125.866C348.098 127.272 348.422 128.401 349.07 129.252C349.727 130.104 350.602 130.53 351.695 130.53C352.797 130.53 353.672 130.1 354.32 129.241C354.969 128.374 355.293 127.163 355.293 125.608C355.293 124.217 354.961 123.092 354.297 122.233C353.641 121.366 352.766 120.932 351.672 120.932C350.602 120.932 349.738 121.358 349.082 122.209C348.426 123.061 348.098 124.28 348.098 125.866ZM362.219 119.385L362.277 120.792C363.207 119.698 364.461 119.151 366.039 119.151C367.812 119.151 369.02 119.831 369.66 121.19C370.082 120.581 370.629 120.088 371.301 119.713C371.98 119.338 372.781 119.151 373.703 119.151C376.484 119.151 377.898 120.624 377.945 123.569V132.065H375.777V123.698C375.777 122.792 375.57 122.116 375.156 121.67C374.742 121.217 374.047 120.991 373.07 120.991C372.266 120.991 371.598 121.233 371.066 121.717C370.535 122.194 370.227 122.838 370.141 123.651V132.065H367.961V123.756C367.961 121.913 367.059 120.991 365.254 120.991C363.832 120.991 362.859 121.596 362.336 122.807V132.065H360.168V119.385H362.219ZM391.938 125.866C391.938 127.795 391.496 129.35 390.613 130.53C389.73 131.709 388.535 132.299 387.027 132.299C385.488 132.299 384.277 131.811 383.395 130.834V136.94H381.227V119.385H383.207L383.312 120.792C384.195 119.698 385.422 119.151 386.992 119.151C388.516 119.151 389.719 119.725 390.602 120.874C391.492 122.022 391.938 123.62 391.938 125.667V125.866ZM389.77 125.62C389.77 124.19 389.465 123.061 388.855 122.233C388.246 121.405 387.41 120.991 386.348 120.991C385.035 120.991 384.051 121.573 383.395 122.737V128.795C384.043 129.952 385.035 130.53 386.371 130.53C387.41 130.53 388.234 130.12 388.844 129.299C389.461 128.471 389.77 127.245 389.77 125.62ZM402.531 130.811C401.688 131.803 400.449 132.299 398.816 132.299C397.465 132.299 396.434 131.909 395.723 131.127C395.02 130.338 394.664 129.174 394.656 127.635V119.385H396.824V127.577C396.824 129.499 397.605 130.459 399.168 130.459C400.824 130.459 401.926 129.842 402.473 128.608V119.385H404.641V132.065H402.578L402.531 130.811ZM410.887 116.315V119.385H413.254V121.061H410.887V128.924C410.887 129.432 410.992 129.815 411.203 130.073C411.414 130.323 411.773 130.448 412.281 130.448C412.531 130.448 412.875 130.401 413.312 130.307V132.065C412.742 132.221 412.188 132.299 411.648 132.299C410.68 132.299 409.949 132.006 409.457 131.42C408.965 130.834 408.719 130.002 408.719 128.924V121.061H406.41V119.385H408.719V116.315H410.887ZM421.059 132.299C419.34 132.299 417.941 131.737 416.863 130.612C415.785 129.479 415.246 127.967 415.246 126.077V125.678C415.246 124.42 415.484 123.299 415.961 122.315C416.445 121.323 417.117 120.549 417.977 119.995C418.844 119.432 419.781 119.151 420.789 119.151C422.438 119.151 423.719 119.694 424.633 120.78C425.547 121.866 426.004 123.42 426.004 125.444V126.346H417.414C417.445 127.596 417.809 128.608 418.504 129.381C419.207 130.147 420.098 130.53 421.176 130.53C421.941 130.53 422.59 130.374 423.121 130.061C423.652 129.749 424.117 129.334 424.516 128.819L425.84 129.85C424.777 131.483 423.184 132.299 421.059 132.299ZM420.789 120.932C419.914 120.932 419.18 121.252 418.586 121.893C417.992 122.526 417.625 123.417 417.484 124.565H423.836V124.401C423.773 123.299 423.477 122.448 422.945 121.846C422.414 121.237 421.695 120.932 420.789 120.932ZM434.652 121.331C434.324 121.276 433.969 121.249 433.586 121.249C432.164 121.249 431.199 121.854 430.691 123.065V132.065H428.523V119.385H430.633L430.668 120.85C431.379 119.717 432.387 119.151 433.691 119.151C434.113 119.151 434.434 119.206 434.652 119.315V121.331Z" fill="#565353"/>
<path d="M213.156 240.065H209.387L195.07 218.151V240.065H191.301V211.627H195.07L209.426 233.639V211.627H213.156V240.065ZM226.34 226.647L231.027 218.932H235.246L228.332 229.381L235.461 240.065H231.281L226.398 232.155L221.516 240.065H217.316L224.445 229.381L217.531 218.932H221.711L226.34 226.647ZM243.996 213.815V218.932H247.941V221.725H243.996V234.831C243.996 235.677 244.172 236.315 244.523 236.745C244.875 237.161 245.474 237.37 246.32 237.37C246.737 237.37 247.31 237.292 248.039 237.135V240.065C247.089 240.325 246.164 240.456 245.266 240.456C243.651 240.456 242.434 239.967 241.613 238.991C240.793 238.014 240.383 236.627 240.383 234.831V221.725H236.535V218.932H240.383V213.815H243.996ZM252.258 238.17C252.258 237.545 252.44 237.025 252.805 236.608C253.182 236.191 253.742 235.983 254.484 235.983C255.227 235.983 255.786 236.191 256.164 236.608C256.555 237.025 256.75 237.545 256.75 238.17C256.75 238.769 256.555 239.271 256.164 239.674C255.786 240.078 255.227 240.28 254.484 240.28C253.742 240.28 253.182 240.078 252.805 239.674C252.44 239.271 252.258 238.769 252.258 238.17ZM282.941 214.713H273.801V240.065H270.07V214.713H260.949V211.627H282.941V214.713ZM303.234 226.92H290.91V236.999H305.227V240.065H287.16V211.627H305.031V214.713H290.91V223.854H303.234V226.92ZM330.812 231.042C330.461 234.049 329.348 236.374 327.473 238.014C325.611 239.642 323.13 240.456 320.031 240.456C316.672 240.456 313.977 239.251 311.945 236.842C309.927 234.433 308.918 231.211 308.918 227.174V224.44C308.918 221.797 309.387 219.472 310.324 217.467C311.275 215.462 312.616 213.926 314.348 212.858C316.079 211.777 318.085 211.237 320.363 211.237C323.384 211.237 325.806 212.083 327.629 213.776C329.452 215.456 330.513 217.786 330.812 220.768H327.043C326.717 218.502 326.008 216.862 324.914 215.846C323.833 214.831 322.316 214.323 320.363 214.323C317.967 214.323 316.086 215.208 314.719 216.979C313.365 218.75 312.688 221.269 312.688 224.538V227.292C312.688 230.377 313.332 232.832 314.621 234.655C315.91 236.478 317.714 237.389 320.031 237.389C322.115 237.389 323.71 236.92 324.816 235.983C325.936 235.032 326.678 233.385 327.043 231.042H330.812ZM357.805 240.065H354.035V226.92H339.699V240.065H335.949V211.627H339.699V223.854H354.035V211.627H357.805V240.065Z" fill="black"/>
<path d="M256.148 158.2C255.667 158.89 254.993 159.407 254.127 159.752C253.268 160.091 252.265 160.26 251.119 160.26C249.96 160.26 248.932 159.99 248.033 159.45C247.135 158.903 246.438 158.128 245.943 157.125C245.455 156.123 245.204 154.961 245.191 153.639V152.399C245.191 150.257 245.689 148.597 246.686 147.418C247.688 146.24 249.094 145.651 250.904 145.651C252.389 145.651 253.583 146.032 254.488 146.793C255.393 147.549 255.947 148.623 256.148 150.016H254.273C253.922 148.135 252.802 147.194 250.914 147.194C249.658 147.194 248.704 147.637 248.053 148.522C247.408 149.401 247.083 150.677 247.076 152.35V153.512C247.076 155.107 247.441 156.377 248.17 157.321C248.899 158.258 249.885 158.727 251.129 158.727C251.832 158.727 252.447 158.649 252.975 158.493C253.502 158.336 253.938 158.073 254.283 157.702V154.508H250.992V152.985H256.148V158.2ZM267.32 153.493H261.158V158.532H268.316V160.065H259.283V145.846H268.219V147.389H261.158V151.959H267.32V153.493ZM281.109 155.553C280.934 157.057 280.377 158.219 279.439 159.04C278.508 159.853 277.268 160.26 275.719 160.26C274.039 160.26 272.691 159.658 271.676 158.454C270.667 157.249 270.162 155.638 270.162 153.62V152.252C270.162 150.931 270.396 149.769 270.865 148.766C271.34 147.764 272.011 146.995 272.877 146.461C273.743 145.921 274.745 145.651 275.885 145.651C277.395 145.651 278.606 146.074 279.518 146.92C280.429 147.76 280.96 148.926 281.109 150.417H279.225C279.062 149.284 278.707 148.463 278.16 147.956C277.62 147.448 276.861 147.194 275.885 147.194C274.687 147.194 273.746 147.637 273.062 148.522C272.385 149.407 272.047 150.667 272.047 152.301V153.678C272.047 155.221 272.369 156.448 273.014 157.36C273.658 158.271 274.56 158.727 275.719 158.727C276.76 158.727 277.558 158.493 278.111 158.024C278.671 157.549 279.042 156.725 279.225 155.553H281.109ZM288.639 160.065V145.846H292.652C293.889 145.846 294.983 146.12 295.934 146.667C296.884 147.213 297.617 147.991 298.131 149C298.652 150.01 298.915 151.168 298.922 152.477V153.385C298.922 154.726 298.661 155.902 298.141 156.911C297.626 157.92 296.887 158.694 295.924 159.235C294.967 159.775 293.85 160.052 292.574 160.065H288.639ZM290.514 147.389V158.532H292.486C293.932 158.532 295.055 158.083 295.855 157.184C296.663 156.286 297.066 155.006 297.066 153.346V152.516C297.066 150.902 296.686 149.648 295.924 148.756C295.169 147.858 294.094 147.402 292.701 147.389H290.514ZM308.004 160.065C307.9 159.857 307.815 159.486 307.75 158.952C306.91 159.824 305.908 160.26 304.742 160.26C303.701 160.26 302.844 159.967 302.174 159.381C301.51 158.789 301.178 158.04 301.178 157.135C301.178 156.035 301.594 155.182 302.428 154.577C303.268 153.965 304.446 153.659 305.963 153.659H307.721V152.829C307.721 152.197 307.532 151.696 307.154 151.325C306.777 150.947 306.22 150.758 305.484 150.758C304.84 150.758 304.299 150.921 303.863 151.247C303.427 151.572 303.209 151.966 303.209 152.428H301.393C301.393 151.901 301.578 151.393 301.949 150.905C302.327 150.41 302.835 150.019 303.473 149.733C304.117 149.446 304.824 149.303 305.592 149.303C306.809 149.303 307.763 149.609 308.453 150.221C309.143 150.827 309.501 151.663 309.527 152.731V157.594C309.527 158.564 309.651 159.336 309.898 159.909V160.065H308.004ZM305.006 158.688C305.572 158.688 306.109 158.542 306.617 158.249C307.125 157.956 307.493 157.575 307.721 157.106V154.938H306.305C304.091 154.938 302.984 155.586 302.984 156.881C302.984 157.448 303.173 157.89 303.551 158.209C303.928 158.528 304.413 158.688 305.006 158.688ZM314.166 150.778C314.967 149.795 316.008 149.303 317.291 149.303C319.524 149.303 320.65 150.563 320.67 153.083V160.065H318.863V153.073C318.857 152.311 318.681 151.748 318.336 151.383C317.997 151.019 317.467 150.836 316.744 150.836C316.158 150.836 315.644 150.993 315.201 151.305C314.758 151.618 314.413 152.028 314.166 152.536V160.065H312.359V145.065H314.166V150.778ZM322.896 154.684C322.896 153.649 323.098 152.718 323.502 151.891C323.912 151.064 324.479 150.426 325.201 149.977C325.93 149.528 326.76 149.303 327.691 149.303C329.13 149.303 330.292 149.801 331.178 150.797C332.07 151.793 332.516 153.118 332.516 154.772V154.899C332.516 155.928 332.317 156.852 331.92 157.672C331.529 158.486 330.966 159.121 330.23 159.577C329.501 160.032 328.661 160.26 327.711 160.26C326.279 160.26 325.117 159.762 324.225 158.766C323.339 157.77 322.896 156.452 322.896 154.811V154.684ZM324.713 154.899C324.713 156.071 324.983 157.012 325.523 157.721C326.07 158.431 326.799 158.786 327.711 158.786C328.629 158.786 329.358 158.428 329.898 157.711C330.439 156.989 330.709 155.98 330.709 154.684C330.709 153.525 330.432 152.588 329.879 151.872C329.332 151.149 328.603 150.788 327.691 150.788C326.799 150.788 326.08 151.142 325.533 151.852C324.986 152.562 324.713 153.577 324.713 154.899ZM334.342 154.694C334.342 153.073 334.726 151.771 335.494 150.788C336.262 149.798 337.268 149.303 338.512 149.303C339.749 149.303 340.729 149.726 341.451 150.573V145.065H343.258V160.065H341.598L341.51 158.932C340.787 159.818 339.781 160.26 338.492 160.26C337.268 160.26 336.269 159.759 335.494 158.756C334.726 157.754 334.342 156.445 334.342 154.831V154.694ZM336.148 154.899C336.148 156.097 336.396 157.034 336.891 157.711C337.385 158.389 338.069 158.727 338.941 158.727C340.087 158.727 340.924 158.213 341.451 157.184V152.331C340.911 151.334 340.081 150.836 338.961 150.836C338.076 150.836 337.385 151.178 336.891 151.862C336.396 152.545 336.148 153.558 336.148 154.899Z" fill="#565353"/>
<path d="M10 325.065C7.34784 325.065 4.80432 324.012 2.92896 322.136C1.05359 320.261 0 317.717 0 315.065V219.06C7.78173 208.796 17.836 200.475 29.3739 194.749C40.9118 189.024 53.6196 186.049 66.5 186.06C77.4658 186.06 88.3242 188.22 98.4552 192.417C108.586 196.613 117.791 202.764 125.545 210.518C133.299 218.273 139.449 227.478 143.645 237.609C147.841 247.741 150.001 258.599 150 269.565C150.028 290.032 142.512 309.792 128.887 325.065H10Z" fill="#B5C9F0"/>
<path d="M485 325.065V6.06494H541C543.652 6.06494 546.196 7.1185 548.071 8.99387C549.946 10.8692 551 13.4128 551 16.0649V315.065C551 317.717 549.946 320.261 548.071 322.136C546.196 324.011 543.652 325.065 541 325.065H485Z" fill="#A9F3DB"/>
<path d="M359 325.065C359 308.356 365.637 292.332 377.452 280.517C389.267 268.702 405.291 262.065 422 262.065C438.709 262.065 454.733 268.702 466.548 280.517C478.363 292.332 485 308.356 485 325.065H359Z" fill="#D4DCEE"/>
<path d="M495 68.5649V251.565H541V68.5649H495Z" fill="#A9F3DB"/>
<path d="M521.995 210.727V213.949L527 214.926V216.671L521.995 215.695V218.612H520.323V215.377L516.001 214.535V217.685H514.305V214.206L509.227 213.205V211.459L514.305 212.46V209.237L509.227 208.236V206.479L514.305 207.479V204.989H516.001V207.809L520.323 208.651V205.905H521.995V208.969L527 209.945V211.703L521.995 210.727ZM520.323 213.632V210.409L516.001 209.567V212.79L520.323 213.632ZM513.865 192.404C514.752 192.404 515.542 192.64 516.233 193.112C516.925 193.576 517.466 194.206 517.857 195.004C518.256 194.076 518.838 193.344 519.603 192.807C520.368 192.261 521.234 191.989 522.203 191.989C523.741 191.989 524.965 192.51 525.877 193.551C526.788 194.585 527.244 195.948 527.244 197.641C527.244 199.35 526.788 200.721 525.877 201.754C524.957 202.78 523.733 203.292 522.203 203.292C521.242 203.292 520.376 203.032 519.603 202.511C518.829 201.982 518.243 201.254 517.845 200.326C517.454 201.116 516.913 201.738 516.221 202.194C515.529 202.65 514.744 202.877 513.865 202.877C512.368 202.877 511.18 202.397 510.301 201.437C509.422 200.477 508.982 199.211 508.982 197.641C508.982 196.078 509.422 194.817 510.301 193.856C511.18 192.888 512.368 192.404 513.865 192.404ZM522.154 194.247C521.161 194.247 520.351 194.564 519.725 195.199C519.098 195.826 518.785 196.648 518.785 197.665C518.785 198.682 519.094 199.5 519.712 200.119C520.331 200.729 521.145 201.034 522.154 201.034C523.163 201.034 523.956 200.737 524.534 200.143C525.112 199.541 525.401 198.707 525.401 197.641C525.401 196.583 525.112 195.753 524.534 195.15C523.948 194.548 523.155 194.247 522.154 194.247ZM510.838 197.641C510.838 198.528 511.115 199.248 511.668 199.801C512.213 200.347 512.958 200.619 513.902 200.619C514.805 200.619 515.538 200.351 516.099 199.813C516.653 199.268 516.929 198.544 516.929 197.641C516.929 196.737 516.653 196.017 516.099 195.48C515.538 194.935 514.805 194.662 513.902 194.662C512.999 194.662 512.262 194.943 511.692 195.504C511.123 196.066 510.838 196.778 510.838 197.641ZM510.496 177.67L527 185.031V187.399L511.082 180.062V189.682H509.227V177.67H510.496ZM527.244 169.394C527.244 171.184 526.658 172.641 525.486 173.764C524.306 174.887 522.732 175.448 520.762 175.448H520.347C519.037 175.448 517.869 175.2 516.844 174.704C515.81 174.199 515.005 173.499 514.427 172.604C513.841 171.701 513.548 170.724 513.548 169.674C513.548 167.957 514.113 166.623 515.245 165.67C516.376 164.718 517.995 164.242 520.103 164.242H521.043V173.19C522.345 173.157 523.399 172.779 524.205 172.055C525.002 171.322 525.401 170.395 525.401 169.271C525.401 168.474 525.238 167.799 524.913 167.245C524.587 166.692 524.156 166.208 523.619 165.792L524.693 164.413C526.394 165.52 527.244 167.18 527.244 169.394ZM515.403 169.674C515.403 170.586 515.737 171.351 516.404 171.969C517.063 172.588 517.991 172.97 519.188 173.117V166.5H519.017C517.869 166.566 516.982 166.875 516.355 167.428C515.721 167.982 515.403 168.73 515.403 169.674ZM518.089 160.812L509.227 159.909V150.802H511.314V157.992L516.16 158.529C515.647 157.659 515.391 156.67 515.391 155.563C515.391 153.944 515.928 152.658 517.002 151.706C518.069 150.753 519.513 150.277 521.336 150.277C523.167 150.277 524.611 150.774 525.669 151.767C526.719 152.751 527.244 154.131 527.244 155.905C527.244 157.475 526.809 158.757 525.938 159.75C525.067 160.743 523.863 161.308 522.325 161.447V159.311C523.342 159.172 524.111 158.81 524.632 158.224C525.145 157.638 525.401 156.865 525.401 155.905C525.401 154.855 525.043 154.033 524.327 153.439C523.611 152.837 522.622 152.536 521.36 152.536C520.172 152.536 519.22 152.861 518.504 153.512C517.78 154.155 517.417 155.014 517.417 156.088C517.417 157.073 517.633 157.846 518.064 158.407L518.553 159.005L518.089 160.812ZM511.155 134.945V140.658H527V142.99H511.155V148.69H509.227V134.945H511.155ZM519.188 124.24C519.749 124.712 520.201 125.277 520.542 125.937C520.884 126.588 521.055 127.304 521.055 128.085C521.055 129.11 520.803 130.006 520.298 130.771C519.794 131.527 519.086 132.113 518.174 132.528C517.255 132.943 516.242 133.151 515.135 133.151C513.947 133.151 512.876 132.927 511.924 132.479C510.972 132.024 510.244 131.381 509.739 130.551C509.235 129.721 508.982 128.752 508.982 127.646C508.982 125.888 509.642 124.504 510.96 123.495C512.27 122.478 514.061 121.969 516.331 121.969H516.99C520.449 121.969 522.976 122.653 524.571 124.02C526.158 125.387 526.972 127.45 527.012 130.209V130.648H525.108V130.172C525.075 128.309 524.591 126.876 523.655 125.875C522.711 124.875 521.222 124.329 519.188 124.24ZM519.188 127.719C519.188 126.962 518.956 126.266 518.492 125.631C518.028 124.988 517.454 124.521 516.771 124.228H515.867C514.386 124.228 513.182 124.549 512.254 125.192C511.326 125.835 510.862 126.649 510.862 127.633C510.862 128.626 511.245 129.424 512.01 130.026C512.767 130.628 513.768 130.929 515.013 130.929C516.225 130.929 517.226 130.64 518.016 130.062C518.797 129.477 519.188 128.695 519.188 127.719ZM515.818 112.24C515.761 112.582 515.733 112.952 515.733 113.351C515.733 114.832 516.364 115.837 517.625 116.366H527V118.625H513.792V116.427L515.318 116.391C514.138 115.65 513.548 114.6 513.548 113.241C513.548 112.802 513.605 112.468 513.719 112.24H515.818Z" fill="#337C6B"/>
<path d="M194.119 275.065H192.303V263.024L188.66 264.362V262.721L193.836 260.778H194.119V275.065ZM200.242 267.936L200.965 260.846H208.25V262.516H202.498L202.068 266.393C202.765 265.983 203.556 265.778 204.441 265.778C205.737 265.778 206.766 266.208 207.527 267.067C208.289 267.92 208.67 269.075 208.67 270.534C208.67 271.999 208.273 273.154 207.479 274C206.691 274.84 205.587 275.26 204.168 275.26C202.911 275.26 201.886 274.912 201.092 274.215C200.298 273.519 199.845 272.555 199.734 271.325H201.443C201.554 272.139 201.844 272.754 202.312 273.17C202.781 273.581 203.4 273.786 204.168 273.786C205.008 273.786 205.665 273.499 206.141 272.926C206.622 272.353 206.863 271.562 206.863 270.553C206.863 269.603 206.603 268.841 206.082 268.268C205.568 267.689 204.881 267.399 204.021 267.399C203.234 267.399 202.615 267.571 202.166 267.917L201.688 268.307L200.242 267.936ZM213.279 261.94V264.499H215.252V265.895H213.279V272.448C213.279 272.871 213.367 273.19 213.543 273.405C213.719 273.613 214.018 273.717 214.441 273.717C214.65 273.717 214.936 273.678 215.301 273.6V275.065C214.826 275.195 214.363 275.26 213.914 275.26C213.107 275.26 212.498 275.016 212.088 274.528C211.678 274.04 211.473 273.346 211.473 272.448V265.895H209.549V264.499H211.473V261.94H213.279ZM219.178 265.778C219.979 264.795 221.02 264.303 222.303 264.303C224.536 264.303 225.662 265.563 225.682 268.083V275.065H223.875V268.073C223.868 267.311 223.693 266.748 223.348 266.383C223.009 266.019 222.479 265.836 221.756 265.836C221.17 265.836 220.656 265.993 220.213 266.305C219.77 266.618 219.425 267.028 219.178 267.536V275.065H217.371V260.065H219.178V265.778ZM232.967 271.247C232.967 270.563 233.156 269.935 233.533 269.362C233.917 268.789 234.646 268.122 235.721 267.36C235.089 266.592 234.666 265.973 234.451 265.504C234.236 265.036 234.129 264.57 234.129 264.108C234.129 263.027 234.448 262.181 235.086 261.569C235.724 260.957 236.59 260.651 237.684 260.651C238.66 260.651 239.467 260.937 240.105 261.51C240.743 262.077 241.062 262.793 241.062 263.659C241.062 264.232 240.916 264.762 240.623 265.25C240.337 265.732 239.832 266.24 239.109 266.774L238.064 267.545L241.229 271.325C241.671 270.478 241.893 269.538 241.893 268.502H243.523C243.523 270.163 243.123 271.54 242.322 272.633L244.354 275.065H242.186L241.238 273.942C240.757 274.372 240.19 274.7 239.539 274.928C238.895 275.15 238.237 275.26 237.566 275.26C236.18 275.26 235.066 274.892 234.227 274.157C233.387 273.421 232.967 272.451 232.967 271.247ZM237.566 273.786C238.523 273.786 239.399 273.421 240.193 272.692L236.727 268.542L236.404 268.776C235.317 269.577 234.773 270.4 234.773 271.247C234.773 272.015 235.021 272.63 235.516 273.092C236.017 273.555 236.701 273.786 237.566 273.786ZM235.936 264.049C235.936 264.674 236.32 265.456 237.088 266.393L238.24 265.583C238.683 265.27 238.986 264.974 239.148 264.694C239.311 264.407 239.393 264.062 239.393 263.659C239.393 263.222 239.23 262.861 238.904 262.575C238.579 262.282 238.169 262.135 237.674 262.135C237.14 262.135 236.717 262.318 236.404 262.682C236.092 263.04 235.936 263.496 235.936 264.049ZM256.502 275.065H254.686V263.024L251.043 264.362V262.721L256.219 260.778H256.502V275.065ZM268.885 260.836V262.37H268.553C267.146 262.396 266.027 262.812 265.193 263.62C264.36 264.427 263.878 265.563 263.748 267.028C264.497 266.168 265.519 265.739 266.814 265.739C268.051 265.739 269.038 266.175 269.773 267.047C270.516 267.92 270.887 269.046 270.887 270.426C270.887 271.891 270.486 273.063 269.686 273.942C268.891 274.821 267.824 275.26 266.482 275.26C265.122 275.26 264.018 274.739 263.172 273.698C262.326 272.65 261.902 271.302 261.902 269.655V268.961C261.902 266.344 262.459 264.346 263.572 262.965C264.692 261.579 266.355 260.869 268.562 260.836H268.885ZM266.512 267.243C265.893 267.243 265.324 267.428 264.803 267.799C264.282 268.17 263.921 268.636 263.719 269.196V269.86C263.719 271.032 263.982 271.976 264.51 272.692C265.037 273.408 265.695 273.766 266.482 273.766C267.296 273.766 267.934 273.467 268.396 272.868C268.865 272.269 269.1 271.484 269.1 270.514C269.1 269.538 268.862 268.75 268.387 268.151C267.918 267.545 267.293 267.243 266.512 267.243ZM275.662 261.94V264.499H277.635V265.895H275.662V272.448C275.662 272.871 275.75 273.19 275.926 273.405C276.102 273.613 276.401 273.717 276.824 273.717C277.033 273.717 277.319 273.678 277.684 273.6V275.065C277.208 275.195 276.746 275.26 276.297 275.26C275.49 275.26 274.881 275.016 274.471 274.528C274.061 274.04 273.855 273.346 273.855 272.448V265.895H271.932V264.499H273.855V261.94H275.662ZM281.561 265.778C282.361 264.795 283.403 264.303 284.686 264.303C286.919 264.303 288.045 265.563 288.064 268.083V275.065H286.258V268.073C286.251 267.311 286.076 266.748 285.73 266.383C285.392 266.019 284.861 265.836 284.139 265.836C283.553 265.836 283.038 265.993 282.596 266.305C282.153 266.618 281.808 267.028 281.561 267.536V275.065H279.754V260.065H281.561V265.778ZM295.252 269.684C295.252 268.649 295.454 267.718 295.857 266.891C296.268 266.064 296.834 265.426 297.557 264.977C298.286 264.528 299.116 264.303 300.047 264.303C301.486 264.303 302.648 264.801 303.533 265.797C304.425 266.793 304.871 268.118 304.871 269.772V269.899C304.871 270.928 304.673 271.852 304.275 272.672C303.885 273.486 303.322 274.121 302.586 274.577C301.857 275.032 301.017 275.26 300.066 275.26C298.634 275.26 297.472 274.762 296.58 273.766C295.695 272.77 295.252 271.452 295.252 269.811V269.684ZM297.068 269.899C297.068 271.071 297.339 272.012 297.879 272.721C298.426 273.431 299.155 273.786 300.066 273.786C300.984 273.786 301.714 273.428 302.254 272.711C302.794 271.989 303.064 270.98 303.064 269.684C303.064 268.525 302.788 267.588 302.234 266.872C301.688 266.149 300.958 265.788 300.047 265.788C299.155 265.788 298.436 266.142 297.889 266.852C297.342 267.562 297.068 268.577 297.068 269.899ZM308.025 275.065V265.895H306.355V264.499H308.025V263.415C308.025 262.282 308.328 261.406 308.934 260.788C309.539 260.169 310.395 259.86 311.502 259.86C311.919 259.86 312.332 259.915 312.742 260.026L312.645 261.491C312.339 261.432 312.013 261.403 311.668 261.403C311.082 261.403 310.63 261.575 310.311 261.92C309.992 262.259 309.832 262.747 309.832 263.385V264.499H312.088V265.895H309.832V275.065H308.025ZM325.291 260.846H327.176V270.915C327.176 272.275 326.766 273.34 325.945 274.108C325.132 274.876 324.044 275.26 322.684 275.26C321.271 275.26 320.171 274.899 319.383 274.176C318.595 273.454 318.201 272.441 318.201 271.139H320.076C320.076 271.953 320.298 272.588 320.74 273.043C321.189 273.499 321.837 273.727 322.684 273.727C323.458 273.727 324.083 273.483 324.559 272.995C325.04 272.506 325.285 271.823 325.291 270.944V260.846ZM336.609 274.02C335.906 274.847 334.874 275.26 333.514 275.26C332.387 275.26 331.528 274.935 330.936 274.284C330.35 273.626 330.053 272.656 330.047 271.374V264.499H331.854V271.325C331.854 272.926 332.505 273.727 333.807 273.727C335.187 273.727 336.105 273.213 336.561 272.184V264.499H338.367V275.065H336.648L336.609 274.02ZM343.084 275.065H341.277V260.065H343.084V275.065ZM349.441 272.418L351.902 264.499H353.836L349.588 276.696C348.93 278.454 347.885 279.333 346.453 279.333L346.111 279.303L345.438 279.176V277.711L345.926 277.75C346.538 277.75 347.013 277.627 347.352 277.379C347.697 277.132 347.98 276.68 348.201 276.022L348.602 274.948L344.832 264.499H346.805L349.441 272.418Z" fill="#676767"/>
<path d="M204.339 299.065H202.977V290.034L200.245 291.038V289.807L204.127 288.35H204.339V299.065ZM214.996 294.517C214.996 296.104 214.725 297.283 214.183 298.054C213.641 298.826 212.794 299.211 211.642 299.211C210.504 299.211 209.662 298.835 209.115 298.083C208.568 297.327 208.285 296.199 208.265 294.7V292.891C208.265 291.323 208.536 290.159 209.078 289.397C209.62 288.635 210.47 288.254 211.627 288.254C212.774 288.254 213.619 288.623 214.161 289.36C214.703 290.093 214.981 291.226 214.996 292.759V294.517ZM213.641 292.664C213.641 291.516 213.48 290.681 213.158 290.159C212.835 289.631 212.325 289.368 211.627 289.368C210.934 289.368 210.428 289.629 210.111 290.151C209.793 290.674 209.63 291.477 209.62 292.561V294.729C209.62 295.881 209.786 296.733 210.118 297.285C210.455 297.832 210.963 298.105 211.642 298.105C212.311 298.105 212.806 297.847 213.128 297.329C213.456 296.812 213.626 295.996 213.641 294.883V292.664ZM216.827 298.354C216.827 298.12 216.896 297.925 217.032 297.769C217.174 297.612 217.384 297.534 217.662 297.534C217.94 297.534 218.15 297.612 218.292 297.769C218.438 297.925 218.512 298.12 218.512 298.354C218.512 298.579 218.438 298.767 218.292 298.918C218.15 299.07 217.94 299.146 217.662 299.146C217.384 299.146 217.174 299.07 217.032 298.918C216.896 298.767 216.827 298.579 216.827 298.354ZM216.834 291.887C216.834 291.653 216.903 291.458 217.04 291.301C217.181 291.145 217.391 291.067 217.669 291.067C217.948 291.067 218.158 291.145 218.299 291.301C218.446 291.458 218.519 291.653 218.519 291.887C218.519 292.112 218.446 292.3 218.299 292.451C218.158 292.603 217.948 292.678 217.669 292.678C217.391 292.678 217.181 292.603 217.04 292.451C216.903 292.3 216.834 292.112 216.834 291.887ZM227.052 294.517C227.052 296.104 226.781 297.283 226.239 298.054C225.697 298.826 224.85 299.211 223.697 299.211C222.56 299.211 221.717 298.835 221.17 298.083C220.624 297.327 220.34 296.199 220.321 294.7V292.891C220.321 291.323 220.592 290.159 221.134 289.397C221.676 288.635 222.525 288.254 223.683 288.254C224.83 288.254 225.675 288.623 226.217 289.36C226.759 290.093 227.037 291.226 227.052 292.759V294.517ZM225.697 292.664C225.697 291.516 225.536 290.681 225.213 290.159C224.891 289.631 224.381 289.368 223.683 289.368C222.989 289.368 222.484 289.629 222.167 290.151C221.849 290.674 221.686 291.477 221.676 292.561V294.729C221.676 295.881 221.842 296.733 222.174 297.285C222.511 297.832 223.019 298.105 223.697 298.105C224.366 298.105 224.862 297.847 225.184 297.329C225.511 296.812 225.682 295.996 225.697 294.883V292.664ZM235.475 294.517C235.475 296.104 235.204 297.283 234.662 298.054C234.12 298.826 233.272 299.211 232.12 299.211C230.982 299.211 230.14 298.835 229.593 298.083C229.046 297.327 228.763 296.199 228.744 294.7V292.891C228.744 291.323 229.015 290.159 229.557 289.397C230.099 288.635 230.948 288.254 232.105 288.254C233.253 288.254 234.098 288.623 234.64 289.36C235.182 290.093 235.46 291.226 235.475 292.759V294.517ZM234.12 292.664C234.12 291.516 233.958 290.681 233.636 290.159C233.314 289.631 232.804 289.368 232.105 289.368C231.412 289.368 230.907 289.629 230.589 290.151C230.272 290.674 230.108 291.477 230.099 292.561V294.729C230.099 295.881 230.265 296.733 230.597 297.285C230.934 297.832 231.441 298.105 232.12 298.105C232.789 298.105 233.285 297.847 233.607 297.329C233.934 296.812 234.105 295.996 234.12 294.883V292.664ZM247.171 296.282H242.704L241.7 299.065H240.25L244.322 288.401H245.553L249.632 299.065H248.189L247.171 296.282ZM243.128 295.125H246.754L244.938 290.137L243.128 295.125ZM252.884 288.401L256.371 297.102L259.857 288.401H261.681V299.065H260.274V294.912L260.406 290.43L256.905 299.065H255.829L252.335 290.452L252.474 294.912V299.065H251.068V288.401H252.884ZM269.51 289.221V291.14H270.99V292.188H269.51V297.102C269.51 297.419 269.576 297.659 269.708 297.82C269.84 297.976 270.064 298.054 270.382 298.054C270.538 298.054 270.753 298.025 271.026 297.966V299.065C270.67 299.163 270.323 299.211 269.986 299.211C269.381 299.211 268.924 299.028 268.617 298.662C268.309 298.296 268.155 297.776 268.155 297.102V292.188H266.712V291.14H268.155V289.221H269.51ZM272.074 295.029C272.074 294.253 272.225 293.555 272.528 292.935C272.835 292.314 273.26 291.836 273.802 291.499C274.349 291.162 274.972 290.994 275.67 290.994C276.749 290.994 277.621 291.367 278.285 292.114C278.954 292.861 279.288 293.855 279.288 295.095V295.19C279.288 295.962 279.139 296.655 278.841 297.271C278.548 297.881 278.126 298.357 277.574 298.699C277.027 299.041 276.397 299.211 275.685 299.211C274.61 299.211 273.739 298.838 273.07 298.091C272.406 297.344 272.074 296.355 272.074 295.125V295.029ZM273.436 295.19C273.436 296.069 273.639 296.775 274.044 297.307C274.454 297.839 275.001 298.105 275.685 298.105C276.373 298.105 276.92 297.837 277.325 297.3C277.73 296.758 277.933 296.001 277.933 295.029C277.933 294.16 277.726 293.457 277.311 292.92C276.9 292.378 276.354 292.107 275.67 292.107C275.001 292.107 274.461 292.373 274.051 292.905C273.641 293.438 273.436 294.199 273.436 295.19ZM289.022 299.065H287.66V290.034L284.928 291.038V289.807L288.81 288.35H289.022V299.065ZM299.979 299.065H292.992V298.091L296.683 293.989C297.23 293.369 297.606 292.866 297.811 292.48C298.021 292.09 298.126 291.687 298.126 291.272C298.126 290.715 297.958 290.259 297.621 289.902C297.284 289.546 296.834 289.368 296.273 289.368C295.599 289.368 295.074 289.561 294.698 289.946C294.327 290.327 294.142 290.859 294.142 291.543H292.787C292.787 290.562 293.102 289.768 293.731 289.163C294.366 288.557 295.213 288.254 296.273 288.254C297.264 288.254 298.048 288.516 298.624 289.038C299.2 289.556 299.488 290.247 299.488 291.111C299.488 292.161 298.819 293.411 297.481 294.861L294.625 297.959H299.979V299.065ZM301.51 298.354C301.51 298.12 301.578 297.925 301.715 297.769C301.856 297.612 302.066 297.534 302.345 297.534C302.623 297.534 302.833 297.612 302.975 297.769C303.121 297.925 303.194 298.12 303.194 298.354C303.194 298.579 303.121 298.767 302.975 298.918C302.833 299.07 302.623 299.146 302.345 299.146C302.066 299.146 301.856 299.07 301.715 298.918C301.578 298.767 301.51 298.579 301.51 298.354ZM301.517 291.887C301.517 291.653 301.585 291.458 301.722 291.301C301.864 291.145 302.074 291.067 302.352 291.067C302.63 291.067 302.84 291.145 302.982 291.301C303.128 291.458 303.202 291.653 303.202 291.887C303.202 292.112 303.128 292.3 302.982 292.451C302.84 292.603 302.63 292.678 302.352 292.678C302.074 292.678 301.864 292.603 301.722 292.451C301.585 292.3 301.517 292.112 301.517 291.887ZM311.734 294.517C311.734 296.104 311.463 297.283 310.921 298.054C310.379 298.826 309.532 299.211 308.38 299.211C307.242 299.211 306.4 298.835 305.853 298.083C305.306 297.327 305.023 296.199 305.003 294.7V292.891C305.003 291.323 305.274 290.159 305.816 289.397C306.358 288.635 307.208 288.254 308.365 288.254C309.513 288.254 310.357 288.623 310.899 289.36C311.441 290.093 311.72 291.226 311.734 292.759V294.517ZM310.379 292.664C310.379 291.516 310.218 290.681 309.896 290.159C309.574 289.631 309.063 289.368 308.365 289.368C307.672 289.368 307.167 289.629 306.849 290.151C306.532 290.674 306.368 291.477 306.358 292.561V294.729C306.358 295.881 306.524 296.733 306.856 297.285C307.193 297.832 307.701 298.105 308.38 298.105C309.049 298.105 309.544 297.847 309.867 297.329C310.194 296.812 310.365 295.996 310.379 294.883V292.664ZM320.157 294.517C320.157 296.104 319.886 297.283 319.344 298.054C318.802 298.826 317.955 299.211 316.803 299.211C315.665 299.211 314.823 298.835 314.276 298.083C313.729 297.327 313.446 296.199 313.426 294.7V292.891C313.426 291.323 313.697 290.159 314.239 289.397C314.781 288.635 315.631 288.254 316.788 288.254C317.936 288.254 318.78 288.623 319.322 289.36C319.864 290.093 320.143 291.226 320.157 292.759V294.517ZM318.802 292.664C318.802 291.516 318.641 290.681 318.319 290.159C317.997 289.631 317.486 289.368 316.788 289.368C316.095 289.368 315.589 289.629 315.272 290.151C314.955 290.674 314.791 291.477 314.781 292.561V294.729C314.781 295.881 314.947 296.733 315.279 297.285C315.616 297.832 316.124 298.105 316.803 298.105C317.472 298.105 317.967 297.847 318.29 297.329C318.617 296.812 318.788 295.996 318.802 294.883V292.664ZM331.854 296.282H327.386L326.383 299.065H324.933L329.005 288.401H330.235L334.315 299.065H332.872L331.854 296.282ZM327.811 295.125H331.437L329.62 290.137L327.811 295.125ZM337.567 288.401L341.053 297.102L344.54 288.401H346.363V299.065H344.957V294.912L345.089 290.43L341.588 299.065H340.511L337.018 290.452L337.157 294.912V299.065H335.75V288.401H337.567Z" fill="#676767"/>
</svg>
