<svg width="75" height="75" viewBox="0 0 75 75" fill="none" xmlns="http://www.w3.org/2000/svg">
<path d="M20.4488 15.6264C20.1984 15.3709 19.9002 15.1673 19.5711 15.0272C19.242 14.887 18.8886 14.8131 18.5309 14.8096C18.1733 14.8062 17.8184 14.8732 17.4867 15.0069C17.1549 15.1406 16.8528 15.3384 16.5975 15.5889C13.7098 18.4598 11.4192 21.8741 9.85776 25.6348C8.29633 29.3955 7.49501 33.4282 7.50002 37.5001C7.49534 41.7283 8.35973 45.9124 10.0395 49.7926C11.7193 53.6728 14.1787 57.1663 17.265 60.0564C17.7845 60.5365 18.4706 60.7953 19.1778 60.7778C19.885 60.7603 20.5575 60.4679 21.0525 59.9626C22.2375 58.7776 22.0913 56.8914 20.9513 55.8001C18.4744 53.4396 16.5034 50.6001 15.158 47.4542C13.8126 44.3083 13.1209 40.9216 13.125 37.5001C13.125 30.5776 15.9038 24.3001 20.4113 19.7326C21.4988 18.6264 21.6113 16.7889 20.4488 15.6264Z" fill="black"/>
<path d="M27.0525 22.2338C26.5586 21.7256 25.8835 21.4339 25.1749 21.4227C24.4664 21.4115 23.7823 21.6815 23.2725 22.1738C21.2431 24.1766 19.6324 26.563 18.5341 29.1942C17.4357 31.8254 16.8718 34.6488 16.875 37.5C16.875 43.845 19.6125 49.5488 23.9738 53.49C24.4884 53.9448 25.1584 54.184 25.8446 54.1582C26.5309 54.1323 27.181 53.8434 27.66 53.3513C28.89 52.1213 28.6613 50.1863 27.5063 49.0988C25.923 47.6105 24.6619 45.8134 23.8008 43.8184C22.9398 41.8234 22.497 39.6729 22.5 37.5C22.5 33.1875 24.2138 29.2725 27 26.4C28.0725 25.2975 28.2488 23.4263 27.0525 22.2338Z" fill="black"/>
<path d="M47.9476 22.2338C48.4414 21.7256 49.1166 21.4339 49.8252 21.4227C50.5337 21.4115 51.2178 21.6815 51.7276 22.1738C53.757 24.1766 55.3677 26.563 56.466 29.1942C57.5643 31.8254 58.1283 34.6488 58.1251 37.5C58.1251 43.845 55.3876 49.5488 51.0263 53.49C50.5116 53.9448 49.8417 54.184 49.1554 54.1582C48.4691 54.1323 47.8191 53.8434 47.3401 53.3513C46.1101 52.1213 46.3388 50.1863 47.4938 49.0988C49.077 47.6105 50.3382 45.8134 51.1992 43.8184C52.0603 41.8234 52.5031 39.6729 52.5001 37.5C52.5001 33.1875 50.7863 29.2725 48.0001 26.4C46.9276 25.2975 46.7513 23.4263 47.9476 22.2338Z" fill="black"/>
<path d="M54.5512 15.6264C54.8016 15.3709 55.0998 15.1673 55.4289 15.0272C55.758 14.887 56.1114 14.8131 56.4691 14.8096C56.8267 14.8062 57.1816 14.8732 57.5133 15.0069C57.845 15.1406 58.1472 15.3384 58.4025 15.5889C61.2902 18.4598 63.5808 21.8741 65.1422 25.6348C66.7037 29.3955 67.505 33.4282 67.5 37.5001C67.5046 41.7283 66.6403 45.9124 64.9605 49.7926C63.2806 53.6728 60.8213 57.1663 57.735 60.0564C57.2155 60.5365 56.5294 60.7953 55.8222 60.7778C55.115 60.7603 54.4425 60.4679 53.9475 59.9626C52.7625 58.7776 52.9087 56.8914 54.0525 55.8001C56.5287 53.4393 58.499 50.5997 59.8437 47.4538C61.1885 44.3079 61.8796 40.9214 61.875 37.5001C61.875 30.5776 59.0962 24.3001 54.5887 19.7326C53.5012 18.6264 53.3887 16.7889 54.5512 15.6264Z" fill="black"/>
<path d="M37.5 31.875C36.0082 31.875 34.5774 32.4676 33.5225 33.5225C32.4676 34.5774 31.875 36.0082 31.875 37.5C31.875 38.9918 32.4676 40.4226 33.5225 41.4775C34.5774 42.5324 36.0082 43.125 37.5 43.125C38.9918 43.125 40.4226 42.5324 41.4775 41.4775C42.5324 40.4226 43.125 38.9918 43.125 37.5C43.125 36.0082 42.5324 34.5774 41.4775 33.5225C40.4226 32.4676 38.9918 31.875 37.5 31.875Z" fill="black"/>
</svg>
