<svg width="320" height="264" viewBox="0 0 320 264" fill="none" xmlns="http://www.w3.org/2000/svg">
<path d="M319.537 16.6378H0.463097C0.340276 16.6378 0.222485 16.5891 0.135638 16.5025C0.0487901 16.4158 0 16.2982 0 16.1757C0 16.0531 0.0487901 15.9355 0.135638 15.8489C0.222485 15.7622 0.340276 15.7135 0.463097 15.7135H319.537C319.66 15.7135 319.777 15.7622 319.864 15.8489C319.951 15.9355 320 16.0531 320 16.1757C320 16.2982 319.951 16.4158 319.864 16.5025C319.777 16.5891 319.66 16.6378 319.537 16.6378Z" fill="#CACACA"/>
<path d="M10.8864 10.1676C13.6998 10.1676 15.9805 7.89148 15.9805 5.08378C15.9805 2.27609 13.6998 0 10.8864 0C8.07305 0 5.79236 2.27609 5.79236 5.08378C5.79236 7.89148 8.07305 10.1676 10.8864 10.1676Z" fill="#3F3D56"/>
<path d="M28.4841 10.1676C31.2975 10.1676 33.5781 7.89148 33.5781 5.08378C33.5781 2.27609 31.2975 0 28.4841 0C25.6707 0 23.39 2.27609 23.39 5.08378C23.39 7.89148 25.6707 10.1676 28.4841 10.1676Z" fill="#3F3D56"/>
<path d="M46.0819 10.1676C48.8952 10.1676 51.1759 7.89148 51.1759 5.08378C51.1759 2.27609 48.8952 0 46.0819 0C43.2685 0 40.9878 2.27609 40.9878 5.08378C40.9878 7.89148 43.2685 10.1676 46.0819 10.1676Z" fill="#3F3D56"/>
<path d="M200.435 63.6927H119.565C118.555 63.6927 117.586 63.2922 116.872 62.5793C116.158 61.8664 115.756 60.8995 115.756 59.8913C115.756 58.8831 116.158 57.9162 116.872 57.2034C117.586 56.4905 118.555 56.09 119.565 56.09H200.435C201.445 56.09 202.414 56.4905 203.128 57.2034C203.842 57.9162 204.244 58.8831 204.244 59.8913C204.244 60.8995 203.842 61.8664 203.128 62.5793C202.414 63.2922 201.445 63.6927 200.435 63.6927Z" fill="#E4E4E4"/>
<path d="M187.396 50.6804H132.604C131.595 50.6793 130.627 50.2783 129.913 49.5655C129.2 48.8527 128.799 47.8865 128.799 46.879C128.799 45.8715 129.2 44.9053 129.913 44.1925C130.627 43.4797 131.595 43.0787 132.604 43.0776H187.396C188.406 43.0776 189.375 43.4781 190.089 44.191C190.804 44.9039 191.205 45.8708 191.205 46.879C191.205 47.8872 190.804 48.8541 190.089 49.567C189.375 50.2799 188.406 50.6804 187.396 50.6804Z" fill="#E4E4E4"/>
<path d="M57.3001 171.106C75.9707 171.106 91.1062 156.001 91.1062 137.368C91.1062 118.735 75.9707 103.63 57.3001 103.63C38.6295 103.63 23.494 118.735 23.494 137.368C23.494 156.001 38.6295 171.106 57.3001 171.106Z" fill="#F0F0F0"/>
<path d="M275.882 171.106C294.552 171.106 309.688 156.001 309.688 137.368C309.688 118.735 294.552 103.63 275.882 103.63C257.211 103.63 242.076 118.735 242.076 137.368C242.076 156.001 257.211 171.106 275.882 171.106Z" fill="#F0F0F0"/>
<path d="M160.108 171.106C178.778 171.106 193.914 156.001 193.914 137.368C193.914 118.735 178.778 103.63 160.108 103.63C141.437 103.63 126.302 118.735 126.302 137.368C126.302 156.001 141.437 171.106 160.108 171.106Z" fill="#F0F0F0"/>
<path d="M292.312 151.99C289.648 150.589 286.868 149.421 284.001 148.5L283.636 144.465L268.814 142.871L266.93 148.028L261.611 150.02C261.421 150.092 261.239 150.187 261.071 150.301H261.065C260.195 150.375 259.356 150.664 258.625 151.143C258.13 151.458 257.689 151.853 257.321 152.31C258.041 152.854 258.788 153.359 259.559 153.842L259.593 153.859C259.812 153.993 260.037 154.128 260.261 154.257C260.666 154.498 261.083 154.728 261.499 154.947L261.763 155.082C262.37 155.396 262.989 155.694 263.624 155.969C263.753 156.025 263.894 156.081 264.023 156.137C264.034 156.143 264.04 156.143 264.051 156.148C264.35 156.272 264.647 156.389 264.951 156.502C265.948 156.882 266.966 157.208 267.999 157.478C270.634 158.179 273.351 158.534 276.079 158.533C277.074 158.533 278.058 158.488 279.031 158.393C281.253 158.188 283.448 157.746 285.576 157.074C285.581 157.074 285.587 157.068 285.592 157.068C286.937 156.641 288.25 156.122 289.523 155.514C289.528 155.508 289.54 155.508 289.546 155.503C289.832 155.368 290.108 155.222 290.389 155.082L290.524 155.015C290.749 154.897 290.974 154.779 291.199 154.656C291.761 154.347 292.312 154.021 292.857 153.673C293.009 153.584 293.155 153.488 293.307 153.387C293.521 153.247 293.734 153.101 293.942 152.95C293.42 152.613 292.874 152.293 292.312 151.99Z" fill="#6C63FF"/>
<path d="M275.643 140.321C281.539 140.321 286.318 135.551 286.318 129.667C286.318 123.784 281.539 119.014 275.643 119.014C269.748 119.014 264.969 123.784 264.969 129.667C264.969 135.551 269.748 140.321 275.643 140.321Z" fill="#A0616A"/>
<path d="M268.476 124.478C269.581 125.783 271.451 126.152 273.177 126.303C276.68 126.609 281.774 126.112 285.198 125.323C285.443 127.687 284.776 130.235 286.171 132.18C286.825 129.826 287.206 127.404 287.305 124.964C287.409 123.917 287.272 122.859 286.904 121.873C286.707 121.379 286.376 120.95 285.947 120.634C285.518 120.318 285.009 120.129 284.478 120.088C285.273 119.486 286.205 119.088 287.19 118.931L283.801 117.231L284.671 116.339L278.535 115.964L280.312 114.837C277.637 114.471 274.931 114.385 272.238 114.583C270.987 114.675 269.68 114.851 268.667 115.574C267.654 116.297 267.068 117.734 267.697 118.795C266.91 118.925 266.168 119.252 265.543 119.747C264.918 120.242 264.43 120.888 264.125 121.624C263.739 122.794 263.646 124.04 263.854 125.254C264.085 127.202 264.538 129.117 265.206 130.962L268.476 124.478Z" fill="#2F2E41"/>
<path d="M161.983 119.101C164.475 119.101 166.496 117.084 166.496 114.597C166.496 112.109 164.475 110.092 161.983 110.092C159.49 110.092 157.469 112.109 157.469 114.597C157.469 117.084 159.49 119.101 161.983 119.101Z" fill="#2F2E41"/>
<path d="M158.067 116.94C157.497 116.408 157.074 115.737 156.841 114.993C156.608 114.249 156.572 113.457 156.738 112.695C156.903 111.933 157.264 111.227 157.785 110.646C158.305 110.065 158.968 109.628 159.709 109.38C159.088 109.47 158.494 109.688 157.963 110.021C157.432 110.353 156.977 110.792 156.625 111.31C156.274 111.828 156.034 112.413 155.922 113.028C155.809 113.644 155.827 114.275 155.973 114.884C156.118 115.492 156.39 116.063 156.769 116.561C157.148 117.059 157.627 117.472 158.176 117.775C158.724 118.078 159.329 118.264 159.954 118.32C160.578 118.377 161.207 118.303 161.801 118.103C161.131 118.202 160.447 118.149 159.801 117.947C159.154 117.746 158.562 117.401 158.067 116.94L158.067 116.94Z" fill="#2F2E41"/>
<path d="M162.074 143.459C169.396 143.459 175.333 137.534 175.333 130.227C175.333 122.919 169.396 116.995 162.074 116.995C154.751 116.995 148.815 122.919 148.815 130.227C148.815 137.534 154.751 143.459 162.074 143.459Z" fill="#2F2E41"/>
<path d="M150.279 122.941C152.563 120.377 155.757 118.799 159.185 118.54C162.613 118.281 166.008 119.362 168.654 121.554C168.545 121.451 168.437 121.347 168.325 121.247C165.706 118.906 162.262 117.698 158.751 117.891C155.24 118.083 151.949 119.66 149.603 122.274C147.257 124.887 146.047 128.324 146.24 131.829C146.433 135.333 148.012 138.617 150.632 140.958C150.657 140.981 150.682 141.003 150.707 141.025C150.82 141.125 150.935 141.22 151.051 141.315C148.56 138.95 147.087 135.712 146.943 132.284C146.799 128.856 147.995 125.506 150.279 122.941H150.279Z" fill="#2F2E41"/>
<path d="M161.961 143.346C166.678 143.346 170.501 139.531 170.501 134.824C170.501 130.118 166.678 126.302 161.961 126.302C157.245 126.302 153.422 130.118 153.422 134.824C153.422 139.531 157.245 143.346 161.961 143.346Z" fill="#A0616A"/>
<path d="M177.242 157.029V159.888C176.718 160.222 176.188 160.535 175.647 160.832C175.431 160.951 175.215 161.064 174.999 161.177L174.869 161.242C174.599 161.377 174.333 161.517 174.058 161.647C174.053 161.652 174.042 161.652 174.036 161.657C172.813 162.242 171.55 162.741 170.257 163.152C170.252 163.152 170.247 163.157 170.241 163.157C168.195 163.803 166.086 164.228 163.949 164.425C163.013 164.517 162.067 164.56 161.111 164.56C158.488 164.561 155.876 164.22 153.342 163.546C152.05 163.207 150.782 162.779 149.547 162.267C149.537 162.262 149.531 162.262 149.52 162.256C149.396 162.202 149.261 162.148 149.136 162.094C148.526 161.83 147.931 161.544 147.347 161.242L147.093 161.113C146.471 160.783 145.86 160.438 145.26 160.066L145.228 160.05C144.304 159.475 143.412 158.85 142.557 158.178C142.119 157.843 141.698 157.493 141.287 157.126C141.071 156.942 140.854 156.748 140.649 156.559C139.859 155.831 139.11 155.06 138.405 154.25C138.499 153.688 138.636 153.134 138.816 152.594L138.822 152.588C138.854 152.496 138.892 152.406 138.935 152.319C138.965 152.241 138.999 152.166 139.038 152.092C140.006 150.285 141.757 149.837 143.93 149.74C145.158 149.686 146.514 149.745 147.947 149.729C148.704 149.724 149.488 149.697 150.272 149.626C155.218 149.179 154.321 146.265 154.542 144.695C154.764 143.174 156.137 144.49 156.229 144.577L156.234 144.582C159.033 145.889 162.13 146.431 165.208 146.152C165.738 146.087 166.268 146.05 166.798 146.033C168.192 146.017 167.89 146.416 167.409 146.746C167.175 146.899 166.931 147.036 166.679 147.156C166.679 147.156 166.457 148.504 166.23 150.522C166.014 152.454 172.831 153.123 174.166 153.543H174.171C174.934 153.823 175.614 154.288 176.15 154.897C176.686 155.506 177.062 156.238 177.242 157.029Z" fill="#6C63FF"/>
<path d="M153.31 134.264C153.682 134.264 153.984 133.712 153.984 133.03C153.984 132.349 153.682 131.797 153.31 131.797C152.937 131.797 152.635 132.349 152.635 133.03C152.635 133.712 152.937 134.264 153.31 134.264Z" fill="#A0616A"/>
<path d="M170.614 134.264C170.986 134.264 171.288 133.712 171.288 133.03C171.288 132.349 170.986 131.797 170.614 131.797C170.241 131.797 169.94 132.349 169.94 133.03C169.94 133.712 170.241 134.264 170.614 134.264Z" fill="#A0616A"/>
<path d="M46.4843 139.73L48.1066 145.338L68.8375 144.973L68.6559 134.698C68.5121 126.564 62.7523 119.549 54.6024 119.693C46.4526 119.836 41.2705 126.712 41.4143 134.846L42.5982 145.435L45.9783 145.376L46.4843 139.73Z" fill="#2F2E41"/>
<path d="M55.5288 143.652C60.6658 143.652 64.8302 139.496 64.8302 134.369C64.8302 129.242 60.6658 125.086 55.5288 125.086C50.3917 125.086 46.2273 129.242 46.2273 134.369C46.2273 139.496 50.3917 143.652 55.5288 143.652Z" fill="#FFB6B6"/>
<path d="M65.7112 127.851C65.6988 127.14 65.4759 126.449 65.0705 125.864C65.0277 125.804 64.9846 125.749 64.9416 125.693C64.597 125.254 64.1553 124.9 63.6511 124.66C63.1469 124.42 62.5939 124.299 62.0352 124.307L55.3498 124.427L48.6687 124.543C47.7116 124.562 46.801 124.959 46.1363 125.646C45.4715 126.334 45.1068 127.256 45.1218 128.211L46.7126 131.408L47.6283 133.244L47.7788 133.158C53.5613 129.915 55.9259 129.872 63.5788 132.888L63.7335 132.948L64.3397 131.399L65.7154 127.885L65.7112 127.851Z" fill="#2F2E41"/>
<path d="M74.0433 148.845C72.0481 146.859 65.2983 147.648 65.2983 147.648L47.4822 148.768C43.5309 149.06 39.9711 152.217 38.6814 153.496C38.8876 153.698 39.0984 153.895 39.3136 154.084C43.2729 157.596 48.2497 159.758 53.5229 160.258C58.7962 160.758 64.092 159.569 68.6429 156.864C70.5519 155.727 72.9944 154.364 74.5249 152.772C75.1311 152.146 75.6163 152.158 76.1537 151.472C75.7514 150.393 75.0114 149.471 74.0433 148.845Z" fill="#6C63FF"/>
<path d="M57.3001 264C75.9707 264 91.1062 248.895 91.1062 230.262C91.1062 211.629 75.9707 196.524 57.3001 196.524C38.6295 196.524 23.494 211.629 23.494 230.262C23.494 248.895 38.6295 264 57.3001 264Z" fill="#F0F0F0"/>
<path d="M275.882 264C294.552 264 309.688 248.895 309.688 230.262C309.688 211.629 294.552 196.524 275.882 196.524C257.211 196.524 242.076 211.629 242.076 230.262C242.076 248.895 257.211 264 275.882 264Z" fill="#F0F0F0"/>
<path d="M160.108 264C178.778 264 193.914 248.895 193.914 230.262C193.914 211.629 178.778 196.524 160.108 196.524C141.437 196.524 126.302 211.629 126.302 230.262C126.302 248.895 141.437 264 160.108 264Z" fill="#F0F0F0"/>
<path d="M56.7466 235.102C61.9082 235.102 66.0925 230.926 66.0925 225.775C66.0925 220.623 61.9082 216.448 56.7466 216.448C51.585 216.448 47.4006 220.623 47.4006 225.775C47.4006 230.926 51.585 235.102 56.7466 235.102Z" fill="#FFB8B8"/>
<path d="M47.9048 228.693C47.9048 228.693 48.6989 227.301 48.5143 222.652C48.3297 218.003 55.4235 220.632 61.3512 220.189C67.2789 219.745 66.0241 227.951 66.0241 227.951C66.0241 227.951 66.4517 227.463 67.3673 223.503C68.2829 219.542 66.204 215.596 66.204 215.596C65.5918 211.435 62.2921 212.768 62.2921 212.768C63.8812 213.386 63.576 214.706 63.576 214.706C62.2309 212.352 58.9313 213.686 58.9313 213.686C54.5305 210.93 50.0704 214.559 50.0704 214.559C44.754 215.763 47.8719 219.983 47.8719 219.983C42.5254 222.679 47.9048 228.693 47.9048 228.693Z" fill="#2F2E41"/>
<path d="M72.3411 247.665C69.6772 246.264 66.8965 245.096 64.0304 244.174L63.6646 240.14L48.8429 238.546L46.9593 243.703L41.6402 245.695C41.4497 245.767 41.2684 245.861 41.1001 245.976H41.0943C40.2235 246.049 39.3848 246.339 38.6543 246.817C38.1588 247.133 37.7182 247.527 37.35 247.985C38.0696 248.529 38.8171 249.034 39.5875 249.517L39.6215 249.533C39.8408 249.668 40.0658 249.803 40.2904 249.932C40.6955 250.173 41.1115 250.403 41.5276 250.622L41.7919 250.757C42.3991 251.071 43.0177 251.368 43.6531 251.643C43.7824 251.699 43.9231 251.756 44.0524 251.812C44.0634 251.817 44.0692 251.817 44.0802 251.823C44.3785 251.946 44.6763 252.064 44.9799 252.176C45.9773 252.557 46.9947 252.883 48.0275 253.153C50.6634 253.854 53.3796 254.209 56.1075 254.208C57.1029 254.208 58.0869 254.163 59.0598 254.068C61.2824 253.863 63.4766 253.421 65.6047 252.749C65.61 252.749 65.6162 252.743 65.6215 252.743C66.9659 252.316 68.2792 251.796 69.552 251.189C69.5573 251.183 69.5688 251.183 69.5745 251.178C69.8613 251.043 70.1367 250.897 70.4178 250.757L70.5528 250.689C70.7778 250.572 71.0028 250.454 71.2279 250.33C71.79 250.022 72.3411 249.696 72.886 249.348C73.0378 249.258 73.1843 249.163 73.3361 249.062C73.5497 248.922 73.7632 248.776 73.9715 248.624C73.4486 248.288 72.9033 247.968 72.3411 247.665Z" fill="#6C63FF"/>
<path d="M172.961 245.692L167.335 245.181L163.968 242.727C163.968 242.722 163.966 242.718 163.963 242.714L163.955 242.718L163.82 242.619L163.803 242.775L158.12 244.956L152.281 243.612L150.261 245.792L141.264 248.771C140.831 249.059 140.451 249.418 140.139 249.833L140.14 249.839C140.517 250.134 140.906 250.425 141.299 250.7C142.191 251.343 143.117 251.937 144.075 252.478C146.405 253.804 148.895 254.825 151.486 255.517C151.721 255.582 151.956 255.643 152.19 255.699C152.598 255.799 153.011 255.894 153.424 255.972C154.258 256.146 155.102 256.282 155.957 256.38C157.212 256.532 158.476 256.607 159.741 256.605C160.605 256.605 161.461 256.572 162.308 256.506C163.796 256.386 165.274 256.161 166.731 255.834C166.783 255.821 166.835 255.812 166.887 255.795C169.118 255.284 171.285 254.531 173.351 253.549C173.669 253.397 173.986 253.241 174.298 253.081C175.068 252.686 175.815 252.261 176.54 251.806C177.088 251.468 177.622 251.108 178.143 250.735C178.465 250.505 178.782 250.271 179.095 250.028L179.061 249.957C178.506 248.776 177.65 247.761 176.58 247.013C175.51 246.265 174.262 245.809 172.961 245.692Z" fill="#6C63FF"/>
<path d="M167.586 217.668C166.93 217.018 166.189 216.46 165.384 216.007C160.41 213.267 154.975 213.219 150.474 215.873C149.355 216.531 148.333 217.34 147.437 218.279C144.912 220.909 143.498 224.409 143.488 228.051V238.856H171.805V226.946C171.805 223.755 170.045 220.061 167.586 217.668Z" fill="#2F2E41"/>
<path d="M157.087 238.561C162.735 238.561 167.314 233.991 167.314 228.354C167.314 222.717 162.735 218.148 157.087 218.148C151.439 218.148 146.86 222.717 146.86 228.354C146.86 233.991 151.439 238.561 157.087 238.561Z" fill="#FFB8B8"/>
<path d="M167.578 219.09C167.557 218.872 167.48 218.664 167.354 218.486C167.228 218.307 167.059 218.164 166.861 218.071C160.462 215.088 153.971 215.166 147.581 218.305H147.464L147.424 218.465C146.164 228.151 146.343 228.363 146.421 228.45C146.544 228.59 146.697 228.701 146.868 228.775C147.026 228.845 147.196 228.88 147.368 228.879H161.956L161.991 228.715C162.16 227.848 162.378 226.991 162.643 226.148C163.224 226.994 163.759 227.871 164.246 228.775L164.306 228.879H167.143C167.197 228.879 167.251 228.875 167.304 228.866C167.597 228.831 167.867 228.691 168.064 228.472C168.143 228.389 168.325 228.19 167.578 219.09Z" fill="#2F2E41"/>
<path d="M283.529 244.382L283.16 240.3L268.147 238.686L266.246 243.908L260.856 245.924C260.66 245.996 260.474 246.091 260.301 246.207C259.225 246.304 258.202 246.719 257.362 247.399C257.485 247.5 257.608 247.597 257.731 247.694C257.756 247.72 257.786 247.741 257.811 247.762C258.154 248.028 258.506 248.29 258.861 248.539C258.955 248.607 259.048 248.675 259.145 248.738C259.926 249.29 260.734 249.802 261.567 250.272C262.363 250.724 263.18 251.141 264.018 251.523C265.558 252.225 267.154 252.798 268.79 253.234C269.019 253.297 269.247 253.357 269.476 253.411C269.874 253.509 270.276 253.602 270.679 253.678C271.491 253.847 272.314 253.979 273.147 254.075C274.371 254.223 275.602 254.296 276.835 254.295C277.677 254.295 278.512 254.262 279.337 254.197C280.788 254.081 282.228 253.862 283.647 253.542C283.698 253.53 283.749 253.521 283.8 253.504C285.974 253.007 288.087 252.273 290.1 251.316C290.409 251.168 290.718 251.016 291.023 250.859C291.773 250.475 292.501 250.061 293.208 249.617C293.462 249.461 293.712 249.3 293.962 249.131C290.121 246.553 284.545 244.707 283.529 244.382Z" fill="#6C63FF"/>
<path d="M275.067 236.101C281.038 236.101 285.879 231.27 285.879 225.311C285.879 219.352 281.038 214.521 275.067 214.521C269.096 214.521 264.255 219.352 264.255 225.311C264.255 231.27 269.096 236.101 275.067 236.101Z" fill="#A0616A"/>
<path d="M267.81 220.054C268.929 221.376 270.823 221.749 272.57 221.901C276.119 222.211 281.278 221.707 284.746 220.909C284.995 223.302 284.319 225.884 285.731 227.853C286.394 225.469 286.779 223.017 286.879 220.545C286.985 219.484 286.846 218.413 286.474 217.414C286.275 216.914 285.939 216.479 285.504 216.159C285.07 215.84 284.554 215.648 284.016 215.607C284.135 215.484 284.217 215.331 284.252 215.165C284.287 214.998 284.274 214.825 284.214 214.665C284.084 214.102 283.796 213.587 283.385 213.181C282.973 212.774 282.455 212.492 281.889 212.367L277.997 211.43C277.997 211.43 274.345 209.832 271.617 210.033C270.35 210.126 269.026 210.303 268 211.036C266.974 211.768 266.381 213.224 267.018 214.299C266.221 214.43 265.47 214.761 264.837 215.263C264.203 215.764 263.709 216.418 263.4 217.164C263.01 218.349 262.915 219.611 263.126 220.84C263.36 222.813 263.819 224.753 264.495 226.621L267.81 220.054Z" fill="#2F2E41"/>
<path d="M171.187 128.303C170.859 127.254 170.127 126.378 169.153 125.867C168.186 125.366 167.154 125.004 166.086 124.791C164.219 124.255 162.284 123.99 160.341 124.006C158.404 124.101 156.423 124.769 155.107 126.19C153.79 127.612 153.302 129.87 154.261 131.553L154.155 131.988C155.692 132.17 157.249 131.904 158.638 131.222C160.026 130.539 161.186 129.47 161.978 128.142C162.705 129.288 163.737 130.208 164.959 130.801C166.18 131.393 167.543 131.634 168.895 131.496C169.326 131.461 169.746 131.341 170.13 131.142C170.585 130.842 170.933 130.405 171.123 129.894C171.313 129.384 171.335 128.827 171.187 128.303Z" fill="#2F2E41"/>
<path d="M308.993 3.10963H296.49C296.244 3.10963 296.008 3.01225 295.835 2.83891C295.661 2.66556 295.563 2.43046 295.563 2.18531C295.563 1.94016 295.661 1.70506 295.835 1.53171C296.008 1.35837 296.244 1.26099 296.49 1.26099H308.993C309.239 1.26099 309.475 1.35837 309.648 1.53171C309.822 1.70506 309.919 1.94016 309.919 2.18531C309.919 2.43046 309.822 2.66556 309.648 2.83891C309.475 3.01225 309.239 3.10963 308.993 3.10963Z" fill="#3F3D56"/>
<path d="M308.993 6.57582H296.49C296.244 6.57582 296.008 6.47844 295.835 6.30509C295.661 6.13175 295.563 5.89664 295.563 5.6515C295.563 5.40635 295.661 5.17124 295.835 4.9979C296.008 4.82456 296.244 4.72717 296.49 4.72717H308.993C309.239 4.72717 309.475 4.82456 309.648 4.9979C309.822 5.17124 309.919 5.40635 309.919 5.6515C309.919 5.89664 309.822 6.13175 309.648 6.30509C309.475 6.47844 309.239 6.57582 308.993 6.57582Z" fill="#3F3D56"/>
<path d="M308.993 10.042H296.49C296.244 10.042 296.008 9.94463 295.835 9.77128C295.661 9.59794 295.563 9.36283 295.563 9.11768C295.563 8.87254 295.661 8.63743 295.835 8.46409C296.008 8.29074 296.244 8.19336 296.49 8.19336H308.993C309.239 8.19336 309.475 8.29074 309.648 8.46409C309.822 8.63743 309.919 8.87254 309.919 9.11768C309.919 9.36283 309.822 9.59794 309.648 9.77128C309.475 9.94463 309.239 10.042 308.993 10.042Z" fill="#3F3D56"/>
</svg>
