<svg width="551" height="320" viewBox="0 0 551 320" fill="none" xmlns="http://www.w3.org/2000/svg">
<path d="M541 0.0649414H10C4.47715 0.0649414 0 4.54209 0 10.0649V309.065C0 314.588 4.47715 319.065 10 319.065H541C546.523 319.065 551 314.588 551 309.065V10.0649C551 4.54209 546.523 0.0649414 541 0.0649414Z" fill="#F6F8FC"/>
<path d="M454 40H239V183H454V40Z" fill="#CEF5E6"/>
<path d="M137.928 38.4912L111.76 148.733L27.695 71.7507L137.928 38.4912Z" fill="#F1BDC7"/>
<path d="M9.99999 319C7.34783 319 4.80432 317.969 2.92895 316.134C1.05359 314.3 0 311.811 0 309.216V215.287C7.78172 205.244 17.836 197.103 29.3739 191.501C40.9118 185.899 53.6195 182.99 66.5 183C77.4658 183 88.3241 185.113 98.4551 189.219C108.586 193.325 117.791 199.343 125.545 206.93C133.299 214.516 139.449 223.523 143.645 233.435C147.841 243.347 150.001 253.971 150 264.7C150.028 284.724 142.511 304.057 128.887 319H9.99999Z" fill="#B5C9F0"/>
<path d="M485 319.065V0.0649414H541C543.652 0.0649414 546.196 1.1185 548.071 2.99387C549.946 4.86923 551 7.41278 551 10.0649V309.065C551 311.717 549.946 314.261 548.071 316.136C546.196 318.011 543.652 319.065 541 319.065H485Z" fill="#A9F3DB"/>
<path d="M359 319C359 302.557 365.637 286.787 377.452 275.159C389.267 263.532 405.291 257 422 257C438.709 257 454.733 263.532 466.548 275.159C478.363 286.787 485 302.557 485 319H359Z" fill="#D4DCEE"/>
</svg>
