<svg width="5" height="6" viewBox="0 0 5 6" fill="none" xmlns="http://www.w3.org/2000/svg">
<path d="M1.39905 0.199862C1.39905 0.146855 1.4201 0.0960195 1.45759 0.0585382C1.49507 0.0210568 1.5459 0 1.59891 0H3.1978C3.25081 0 3.30165 0.0210568 3.33913 0.0585382C3.37661 0.0960195 3.39767 0.146855 3.39767 0.199862C3.39767 0.252868 3.37661 0.303704 3.33913 0.341185C3.30165 0.378667 3.25081 0.399724 3.1978 0.399724H1.59891C1.5459 0.399724 1.49507 0.378667 1.45759 0.341185C1.4201 0.303704 1.39905 0.252868 1.39905 0.199862Z" fill="black"/>
<path d="M2.39834 5.59612C3.03442 5.59612 3.64445 5.34344 4.09422 4.89366C4.544 4.44389 4.79668 3.83386 4.79668 3.19778C4.79668 2.5617 4.544 1.95167 4.09422 1.5019C3.64445 1.05212 3.03442 0.799438 2.39834 0.799438C1.76226 0.799438 1.15223 1.05212 0.702458 1.5019C0.252682 1.95167 0 2.5617 0 3.19778C0 3.83386 0.252682 4.44389 0.702458 4.89366C1.15223 5.34344 1.76226 5.59612 2.39834 5.59612ZM2.39834 1.59889C2.45135 1.59889 2.50218 1.61994 2.53966 1.65742C2.57715 1.69491 2.5982 1.74574 2.5982 1.79875V3.39764C2.5982 3.45065 2.57715 3.50148 2.53966 3.53897C2.50218 3.57645 2.45135 3.5975 2.39834 3.5975C2.34533 3.5975 2.2945 3.57645 2.25702 3.53897C2.21954 3.50148 2.19848 3.45065 2.19848 3.39764V1.79875C2.19848 1.74574 2.21954 1.69491 2.25702 1.65742C2.2945 1.61994 2.34533 1.59889 2.39834 1.59889Z" fill="black"/>
<path d="M4.37817 0.656352C4.35973 0.637263 4.33768 0.622038 4.31329 0.611563C4.28891 0.601088 4.26268 0.595575 4.23614 0.595344C4.20961 0.595114 4.18329 0.600171 4.15873 0.61022C4.13416 0.620269 4.11185 0.635109 4.09308 0.653875C4.07432 0.672641 4.05948 0.694956 4.04943 0.719518C4.03938 0.74408 4.03432 0.770398 4.03455 0.796935C4.03478 0.823473 4.0403 0.849699 4.05077 0.874083C4.06125 0.898467 4.07647 0.92052 4.09556 0.938957L4.65637 1.49977C4.67481 1.51886 4.69686 1.53408 4.72125 1.54456C4.74563 1.55503 4.77186 1.56055 4.79839 1.56078C4.82493 1.56101 4.85125 1.55595 4.87581 1.5459C4.90037 1.53585 4.92269 1.52101 4.94146 1.50225C4.96022 1.48348 4.97506 1.46117 4.98511 1.4366C4.99516 1.41204 5.00022 1.38572 4.99999 1.35919C4.99976 1.33265 4.99424 1.30642 4.98377 1.28204C4.97329 1.25765 4.95807 1.2356 4.93898 1.21716L4.37817 0.656352Z" fill="black"/>
</svg>
